<?xml version="1.0" encoding="UTF-8" standalone="no"?>
<!-- Created with Inkscape (http://www.inkscape.org/) -->

<svg
   xmlns:dc="http://purl.org/dc/elements/1.1/"
   xmlns:cc="http://creativecommons.org/ns#"
   xmlns:rdf="http://www.w3.org/1999/02/22-rdf-syntax-ns#"
   xmlns:svg="http://www.w3.org/2000/svg"
   xmlns="http://www.w3.org/2000/svg"
   xmlns:sodipodi="http://sodipodi.sourceforge.net/DTD/sodipodi-0.dtd"
   xmlns:inkscape="http://www.inkscape.org/namespaces/inkscape"
   width="210mm"
   height="297mm"
   viewBox="0 0 210 297"
   version="1.1"
   id="svg8"
   inkscape:version="0.92.2 (5c3e80d, 2017-08-06)"
   sodipodi:docname="dessin.svg">
  <defs
     id="defs2" />
  <sodipodi:namedview
     id="base"
     pagecolor="#ffffff"
     bordercolor="#666666"
     borderopacity="1.0"
     inkscape:pageopacity="0.0"
     inkscape:pageshadow="2"
     inkscape:zoom="1.4824529"
     inkscape:cx="640.68225"
     inkscape:cy="787.47628"
     inkscape:document-units="mm"
     inkscape:current-layer="layer1"
     showgrid="false"
     inkscape:window-width="1920"
     inkscape:window-height="1027"
     inkscape:window-x="1912"
     inkscape:window-y="-8"
     inkscape:window-maximized="1" />
  <metadata
     id="metadata5">
    <rdf:RDF>
      <cc:Work
         rdf:about="">
        <dc:format>image/svg+xml</dc:format>
        <dc:type
           rdf:resource="http://purl.org/dc/dcmitype/StillImage" />
        <dc:title></dc:title>
      </cc:Work>
    </rdf:RDF>
  </metadata>
  <g
     inkscape:label="Calque 1"
     inkscape:groupmode="layer"
     id="layer1">
    <ellipse
       style="opacity:1;fill:none;fill-opacity:1;fill-rule:evenodd;stroke:#ffffff;stroke-width:10;stroke-linecap:round;stroke-linejoin:round;stroke-miterlimit:4;stroke-dasharray:none;stroke-opacity:1"
       id="path815"
       cx="68.980659"
       cy="90.436005"
       rx="2.0788691"
       ry="16.819941" />
    <path
       style="opacity:1;fill:none;fill-opacity:1;fill-rule:evenodd;stroke:#ffffff;stroke-width:25;stroke-linecap:round;stroke-linejoin:round;stroke-miterlimit:4;stroke-dasharray:none;stroke-opacity:1"
       id="path821"
       sodipodi:type="arc"
       sodipodi:cx="114.52679"
       sodipodi:cy="116.32738"
       sodipodi:rx="49.514877"
       sodipodi:ry="49.514877"
       sodipodi:start="0"
       sodipodi:end="6.2828112"
       d="m 164.04166,116.32738 a 49.514877,49.514877 0 0 1 -49.51024,49.51487 49.514877,49.514877 0 0 1 -49.51951,-49.50561 49.514877,49.514877 0 0 1 49.50098,-49.524138 49.514877,49.514877 0 0 1 49.52877,49.496348"
       sodipodi:open="true"
       inkscape:export-filename="E:\Projects\LD46\LD46\Assets\Sprites\SelectionCircle.png"
       inkscape:export-xdpi="100"
       inkscape:export-ydpi="100" />
    <path
       style="opacity:1;fill:#fbffff;fill-opacity:1;fill-rule:evenodd;stroke:#ffffff;stroke-width:25;stroke-linecap:round;stroke-linejoin:round;stroke-miterlimit:4;stroke-dasharray:none;stroke-opacity:1"
       id="path823"
       sodipodi:type="arc"
       sodipodi:cx="119.71693"
       sodipodi:cy="39.694027"
       sodipodi:rx="16.689405"
       sodipodi:ry="10.250187"
       sodipodi:start="0"
       sodipodi:end="6.2828188"
       sodipodi:open="true"
       d="M 136.40633,39.694027 A 16.689405,10.250187 0 0 1 119.71846,49.944214 16.689405,10.250187 0 0 1 103.02752,39.695905 16.689405,10.250187 0 0 1 119.71234,29.44384 16.689405,10.250187 0 0 1 136.40633,39.69027" />
    <path
       style="opacity:1;fill:#fbffff;fill-opacity:1;fill-rule:evenodd;stroke:#ffffff;stroke-width:25;stroke-linecap:round;stroke-linejoin:round;stroke-miterlimit:4;stroke-dasharray:none;stroke-opacity:1"
       id="path825"
       sodipodi:type="arc"
       sodipodi:cx="187.65726"
       sodipodi:cy="35.751644"
       sodipodi:rx="18.660595"
       sodipodi:ry="12.352789"
       sodipodi:start="0"
       sodipodi:end="6.2828188"
       sodipodi:open="true"
       d="M 206.31785,35.751644 A 18.660595,12.352789 0 0 1 187.65897,48.104433 18.660595,12.352789 0 0 1 168.99666,35.753908 18.660595,12.352789 0 0 1 187.65213,23.398856 18.660595,12.352789 0 0 1 206.31785,35.747117" />
    <path
       style="opacity:1;fill:none;fill-opacity:1;fill-rule:evenodd;stroke:#000028;stroke-width:5;stroke-linecap:round;stroke-linejoin:round;stroke-miterlimit:4;stroke-dasharray:none;stroke-opacity:1"
       id="path827"
       sodipodi:type="arc"
       sodipodi:cx="128.12733"
       sodipodi:cy="5.1324992"
       sodipodi:rx="32.984573"
       sodipodi:ry="26.676767"
       sodipodi:start="0"
       sodipodi:end="6.2828188"
       sodipodi:open="true"
       d="M 161.11191,5.1324992 A 32.984573,26.676767 0 0 1 128.13036,31.809266 32.984573,26.676767 0 0 1 95.142762,5.1373878 32.984573,26.676767 0 0 1 128.11827,-21.544267 32.984573,26.676767 0 0 1 161.11191,5.122722" />
    <path
       style="opacity:1;fill:#eec621;fill-opacity:1;fill-rule:evenodd;stroke:#eca422;stroke-width:4.32956314;stroke-linecap:round;stroke-linejoin:round;stroke-miterlimit:4;stroke-dasharray:none;stroke-opacity:1"
       id="path839"
       sodipodi:type="arc"
       sodipodi:cx="176.30678"
       sodipodi:cy="88.167564"
       sodipodi:rx="19.847473"
       sodipodi:ry="22.570602"
       sodipodi:start="0"
       sodipodi:end="6.2828188"
       sodipodi:open="true"
       d="M 196.15425,88.167564 A 19.847473,22.570602 0 0 1 176.3086,110.73817 19.847473,22.570602 0 0 1 156.45931,88.171701 19.847473,22.570602 0 0 1 176.30132,65.596963 19.847473,22.570602 0 0 1 196.15425,88.159292" />
    <path
       style="fill:none;fill-rule:evenodd;stroke:#eca422;stroke-width:5;stroke-linecap:round;stroke-linejoin:miter;stroke-opacity:1;stroke-miterlimit:4;stroke-dasharray:none"
       d="M 176.06728,73.547146 V 102.2819"
       id="path847"
       inkscape:connector-curvature="0" />
  </g>
</svg>
