# MagicaVoxel @ Ephtracy

# group
o 

# material
mtllib Enemy.mtl
usemtl palette

# normals
vn -1 0 0
vn 1 0 0
vn 0 0 1
vn 0 0 -1
vn 0 -1 0
vn 0 1 0

# texcoords
vt 0.173828 0.5
vt 0.314453 0.5
vt 0.912109 0.5
vt 0.994141 0.5

# verts
v -0.5 0.6 0.1
v -0.5 0.6 -0.0999999
v -0.5 0.7 0.2
v -0.5 0.7 0.1
v -0.5 0.8 0.2
v -0.5 0.8 0.1
v -0.5 1 0.1
v -0.5 1 -0.0999999
v -0.5 1.1 0.1
v -0.5 1.1 -0.0999999
v -0.4 1.3 1.19209e-007
v -0.4 1.3 -0.2
v -0.4 1.5 1.19209e-007
v -0.4 1.5 -0.2
v -0.3 0 0.1
v -0.3 0 -0.0999999
v -0.3 0.1 0.2
v -0.3 0.1 0.1
v -0.3 0.2 0.2
v -0.3 0.2 0.1
v -0.3 0.4 0.2
v -0.3 0.4 0.1
v -0.3 0.4 -0.0999999
v -0.3 0.4 -0.2
v -0.3 0.6 0.1
v -0.3 0.6 -0.0999999
v -0.3 0.7 0.2
v -0.3 0.7 0.1
v -0.3 0.8 0.2
v -0.3 0.8 0.1
v -0.3 1 0.2
v -0.3 1 0.1
v -0.3 1 -0.0999999
v -0.3 1 -0.2
v -0.3 1.1 0.2
v -0.3 1.1 0.1
v -0.3 1.1 -0.0999999
v -0.3 1.1 -0.3
v -0.3 1.3 0.2
v -0.3 1.3 0.1
v -0.3 1.3 1.19209e-007
v -0.3 1.3 -0.2
v -0.3 1.5 1.19209e-007
v -0.3 1.5 -0.2
v -0.3 1.6 0.1
v -0.3 1.6 -0.3
v -0.2 0.5 -0.2
v -0.2 0.5 -0.3
v -0.2 0.6 0.3
v -0.2 0.6 0.2
v -0.2 0.7 0.3
v -0.2 0.7 0.2
v -0.2 0.8 0.3
v -0.2 0.8 0.2
v -0.2 0.9 0.3
v -0.2 0.9 0.2
v -0.2 0.9 -0.2
v -0.2 0.9 -0.3
v -0.2 1.1 0.3
v -0.2 1.1 0.2
v -0.2 1.3 0.3
v -0.2 1.3 0.2
v -0.2 1.3 0.1
v -0.2 1.3 -0.3
v -0.2 1.3 -0.4
v -0.2 1.4 0.2
v -0.2 1.4 0.1
v -0.2 1.5 0.2
v -0.2 1.5 0.1
v -0.2 1.6 0.4
v -0.2 1.6 0.2
v -0.2 1.6 0.1
v -0.2 1.6 -0.3
v -0.2 1.6 -0.4
v -0.2 1.7 0.4
v -0.2 1.7 -0.3
v -0.1 0.5 0.3
v -0.1 0.5 0.2
v -0.1 0.6 0.3
v -0.1 0.6 0.2
v -0.1 0.7 0.3
v -0.1 0.7 0.2
v -0.1 0.8 0.3
v -0.1 0.8 0.2
v -0.1 0.9 0.3
v -0.1 0.9 0.2
v -0.1 1 0.3
v -0.1 1 0.2
v -0.1 1.7 0.1
v -0.1 1.7 -0.2
v -0.1 1.8 0.1
v -0.1 1.8 -0.2
v 0.1 0 0.1
v 0.1 0 -0.0999999
v 0.1 0.1 0.2
v 0.1 0.1 0.1
v 0.1 0.2 0.2
v 0.1 0.2 0.1
v 0.1 0.4 0.1
v 0.1 0.4 -0.0999999
v -0.1 0 0.1
v -0.1 0 -0.0999999
v -0.1 0.1 0.2
v -0.1 0.1 0.1
v -0.1 0.2 0.2
v -0.1 0.2 0.1
v -0.1 0.4 0.1
v -0.1 0.4 -0.0999999
v 0.1 0.5 0.3
v 0.1 0.5 0.2
v 0.1 0.6 0.3
v 0.1 0.6 0.2
v 0.1 0.7 0.3
v 0.1 0.7 0.2
v 0.1 0.8 0.3
v 0.1 0.8 0.2
v 0.1 0.9 0.3
v 0.1 0.9 0.2
v 0.1 1 0.3
v 0.1 1 0.2
v 0.1 1.7 0.1
v 0.1 1.7 -0.2
v 0.1 1.8 0.1
v 0.1 1.8 -0.2
v 0.2 0.5 -0.2
v 0.2 0.5 -0.3
v 0.2 0.6 0.3
v 0.2 0.6 0.2
v 0.2 0.7 0.3
v 0.2 0.7 0.2
v 0.2 0.8 0.3
v 0.2 0.8 0.2
v 0.2 0.9 0.3
v 0.2 0.9 0.2
v 0.2 0.9 -0.2
v 0.2 0.9 -0.3
v 0.2 1.1 0.3
v 0.2 1.1 0.2
v 0.2 1.3 0.3
v 0.2 1.3 0.2
v 0.2 1.3 0.1
v 0.2 1.3 -0.3
v 0.2 1.3 -0.4
v 0.2 1.4 0.2
v 0.2 1.4 0.1
v 0.2 1.5 0.2
v 0.2 1.5 0.1
v 0.2 1.6 0.4
v 0.2 1.6 0.2
v 0.2 1.6 0.1
v 0.2 1.6 -0.3
v 0.2 1.6 -0.4
v 0.2 1.7 0.4
v 0.2 1.7 -0.3
v 0.3 0 0.1
v 0.3 0 -0.0999999
v 0.3 0.1 0.2
v 0.3 0.1 0.1
v 0.3 0.2 0.2
v 0.3 0.2 0.1
v 0.3 0.4 0.2
v 0.3 0.4 0.1
v 0.3 0.4 -0.0999999
v 0.3 0.4 -0.2
v 0.3 0.6 0.1
v 0.3 0.6 -0.0999999
v 0.3 0.7 0.2
v 0.3 0.7 0.1
v 0.3 0.8 0.2
v 0.3 0.8 0.1
v 0.3 1 0.2
v 0.3 1 0.1
v 0.3 1 -0.0999999
v 0.3 1 -0.2
v 0.3 1.1 0.2
v 0.3 1.1 0.1
v 0.3 1.1 -0.0999999
v 0.3 1.1 -0.3
v 0.3 1.3 0.2
v 0.3 1.3 0.1
v 0.3 1.3 1.19209e-007
v 0.3 1.3 -0.2
v 0.3 1.5 1.19209e-007
v 0.3 1.5 -0.2
v 0.3 1.6 0.1
v 0.3 1.6 -0.3
v 0.4 1.3 1.19209e-007
v 0.4 1.3 -0.2
v 0.4 1.5 1.19209e-007
v 0.4 1.5 -0.2
v 0.5 0.6 0.1
v 0.5 0.6 -0.0999999
v 0.5 0.7 0.2
v 0.5 0.7 0.1
v 0.5 0.8 0.2
v 0.5 0.8 0.1
v 0.5 1 0.1
v 0.5 1 -0.0999999
v 0.5 1.1 0.1
v 0.5 1.1 -0.0999999
v -0.2 1.6 0.4
v -0.2 1.7 0.4
v 0.2 1.6 0.4
v 0.2 1.7 0.4
v -0.2 0.6 0.3
v -0.2 0.7 0.3
v -0.2 0.8 0.3
v -0.2 0.9 0.3
v -0.2 1.1 0.3
v -0.2 1.3 0.3
v -0.1 0.5 0.3
v -0.1 0.6 0.3
v -0.1 0.7 0.3
v -0.1 0.8 0.3
v -0.1 0.9 0.3
v -0.1 1 0.3
v -0.1 1.1 0.3
v -0.1 1.3 0.3
v 0.1 0.5 0.3
v 0.1 0.6 0.3
v 0.1 0.7 0.3
v 0.1 0.8 0.3
v 0.1 0.9 0.3
v 0.1 1 0.3
v 0.1 1.1 0.3
v 0.1 1.3 0.3
v 0.2 0.6 0.3
v 0.2 0.7 0.3
v 0.2 0.8 0.3
v 0.2 0.9 0.3
v 0.2 1.1 0.3
v 0.2 1.3 0.3
v -0.5 0.7 0.2
v -0.5 0.8 0.2
v -0.3 0.1 0.2
v -0.3 0.2 0.2
v -0.3 0.4 0.2
v -0.3 0.7 0.2
v -0.3 0.8 0.2
v -0.3 1 0.2
v -0.3 1.1 0.2
v -0.3 1.3 0.2
v -0.2 0.6 0.2
v -0.2 0.7 0.2
v -0.2 0.8 0.2
v -0.2 0.9 0.2
v -0.2 1.1 0.2
v -0.2 1.3 0.2
v -0.2 1.4 0.2
v -0.2 1.5 0.2
v -0.2 1.6 0.2
v -0.1 0.1 0.2
v -0.1 0.2 0.2
v -0.1 0.5 0.2
v -0.1 0.6 0.2
v -0.1 0.7 0.2
v -0.1 0.8 0.2
v -0.1 0.9 0.2
v -0.1 1 0.2
v -0.1 1.3 0.2
v -0.1 1.4 0.2
v -0.1 1.5 0.2
v 0.1 0.1 0.2
v 0.1 0.2 0.2
v 0.1 0.5 0.2
v 0.1 0.6 0.2
v 0.1 0.7 0.2
v 0.1 0.8 0.2
v 0.1 0.9 0.2
v 0.1 1 0.2
v 0.1 1.3 0.2
v 0.1 1.4 0.2
v 0.1 1.5 0.2
v 0.2 0.6 0.2
v 0.2 0.7 0.2
v 0.2 0.8 0.2
v 0.2 0.9 0.2
v 0.2 1.1 0.2
v 0.2 1.3 0.2
v 0.2 1.4 0.2
v 0.2 1.5 0.2
v 0.2 1.6 0.2
v 0.3 0.1 0.2
v 0.3 0.2 0.2
v 0.3 0.4 0.2
v 0.3 0.7 0.2
v 0.3 0.8 0.2
v 0.3 1 0.2
v 0.3 1.1 0.2
v 0.3 1.3 0.2
v 0.5 0.7 0.2
v 0.5 0.8 0.2
v -0.5 0.6 0.1
v -0.5 0.7 0.1
v -0.5 0.8 0.1
v -0.5 1 0.1
v -0.5 1.1 0.1
v -0.3 0 0.1
v -0.3 0.1 0.1
v -0.3 0.2 0.1
v -0.3 0.4 0.1
v -0.3 0.6 0.1
v -0.3 0.7 0.1
v -0.3 0.8 0.1
v -0.3 1 0.1
v -0.3 1.1 0.1
v -0.3 1.3 0.1
v -0.3 1.6 0.1
v -0.2 1.3 0.1
v -0.2 1.4 0.1
v -0.2 1.5 0.1
v -0.2 1.6 0.1
v -0.1 0 0.1
v -0.1 0.1 0.1
v -0.1 0.2 0.1
v -0.1 0.4 0.1
v -0.1 1 0.1
v -0.1 1.1 0.1
v -0.1 1.7 0.1
v -0.1 1.8 0.1
v 0.1 0 0.1
v 0.1 0.1 0.1
v 0.1 0.2 0.1
v 0.1 0.4 0.1
v 0.1 1 0.1
v 0.1 1.1 0.1
v 0.1 1.7 0.1
v 0.1 1.8 0.1
v 0.2 1.3 0.1
v 0.2 1.4 0.1
v 0.2 1.5 0.1
v 0.2 1.6 0.1
v 0.3 0 0.1
v 0.3 0.1 0.1
v 0.3 0.2 0.1
v 0.3 0.4 0.1
v 0.3 0.6 0.1
v 0.3 0.7 0.1
v 0.3 0.8 0.1
v 0.3 1 0.1
v 0.3 1.1 0.1
v 0.3 1.3 0.1
v 0.3 1.6 0.1
v 0.5 0.6 0.1
v 0.5 0.7 0.1
v 0.5 0.8 0.1
v 0.5 1 0.1
v 0.5 1.1 0.1
v -0.4 1.3 1.19209e-007
v -0.4 1.5 1.19209e-007
v -0.3 1.3 1.19209e-007
v -0.3 1.5 1.19209e-007
v 0.3 1.3 1.19209e-007
v 0.3 1.5 1.19209e-007
v 0.4 1.3 1.19209e-007
v 0.4 1.5 1.19209e-007
v -0.5 0.6 -0.0999999
v -0.5 1 -0.0999999
v -0.5 1.1 -0.0999999
v -0.3 0 -0.0999999
v -0.3 0.4 -0.0999999
v -0.3 0.6 -0.0999999
v -0.3 1 -0.0999999
v -0.3 1.1 -0.0999999
v -0.1 0 -0.0999999
v -0.1 0.4 -0.0999999
v -0.1 1 -0.0999999
v -0.1 1.1 -0.0999999
v 0.1 0 -0.0999999
v 0.1 0.4 -0.0999999
v 0.1 1 -0.0999999
v 0.1 1.1 -0.0999999
v 0.3 0 -0.0999999
v 0.3 0.4 -0.0999999
v 0.3 0.6 -0.0999999
v 0.3 1 -0.0999999
v 0.3 1.1 -0.0999999
v 0.5 0.6 -0.0999999
v 0.5 1 -0.0999999
v 0.5 1.1 -0.0999999
v -0.4 1.3 -0.2
v -0.4 1.5 -0.2
v -0.3 0.4 -0.2
v -0.3 1 -0.2
v -0.3 1.3 -0.2
v -0.3 1.5 -0.2
v -0.2 0.5 -0.2
v -0.2 0.9 -0.2
v -0.1 1.7 -0.2
v -0.1 1.8 -0.2
v 0.1 1.7 -0.2
v 0.1 1.8 -0.2
v 0.2 0.5 -0.2
v 0.2 0.9 -0.2
v 0.3 0.4 -0.2
v 0.3 1 -0.2
v 0.3 1.3 -0.2
v 0.3 1.5 -0.2
v 0.4 1.3 -0.2
v 0.4 1.5 -0.2
v -0.3 1.1 -0.3
v -0.3 1.6 -0.3
v -0.2 0.5 -0.3
v -0.2 0.9 -0.3
v -0.2 1.3 -0.3
v -0.2 1.6 -0.3
v -0.2 1.7 -0.3
v 0.2 0.5 -0.3
v 0.2 0.9 -0.3
v 0.2 1.3 -0.3
v 0.2 1.6 -0.3
v 0.2 1.7 -0.3
v 0.3 1.1 -0.3
v 0.3 1.6 -0.3
v -0.2 1.3 -0.4
v -0.2 1.6 -0.4
v 0.2 1.3 -0.4
v 0.2 1.6 -0.4
v -0.3 0 0.1
v -0.1 0 0.1
v 0.1 0 0.1
v 0.3 0 0.1
v -0.3 0 -0.0999999
v -0.1 0 -0.0999999
v 0.1 0 -0.0999999
v 0.3 0 -0.0999999
v -0.3 0.1 0.2
v -0.1 0.1 0.2
v 0.1 0.1 0.2
v 0.3 0.1 0.2
v -0.3 0.1 0.1
v -0.1 0.1 0.1
v 0.1 0.1 0.1
v 0.3 0.1 0.1
v -0.3 0.4 0.2
v 0.3 0.4 0.2
v -0.3 0.4 0.1
v -0.1 0.4 0.1
v 0.1 0.4 0.1
v 0.3 0.4 0.1
v -0.3 0.4 -0.0999999
v -0.1 0.4 -0.0999999
v 0.1 0.4 -0.0999999
v 0.3 0.4 -0.0999999
v -0.3 0.4 -0.2
v 0.3 0.4 -0.2
v -0.1 0.5 0.3
v 0.1 0.5 0.3
v -0.1 0.5 0.2
v 0.1 0.5 0.2
v -0.2 0.5 -0.2
v 0.2 0.5 -0.2
v -0.2 0.5 -0.3
v 0.2 0.5 -0.3
v -0.2 0.6 0.3
v -0.1 0.6 0.3
v 0.1 0.6 0.3
v 0.2 0.6 0.3
v -0.2 0.6 0.2
v -0.1 0.6 0.2
v 0.1 0.6 0.2
v 0.2 0.6 0.2
v -0.5 0.6 0.1
v -0.3 0.6 0.1
v 0.3 0.6 0.1
v 0.5 0.6 0.1
v -0.5 0.6 -0.0999999
v -0.3 0.6 -0.0999999
v 0.3 0.6 -0.0999999
v 0.5 0.6 -0.0999999
v -0.5 0.7 0.2
v -0.3 0.7 0.2
v 0.3 0.7 0.2
v 0.5 0.7 0.2
v -0.5 0.7 0.1
v -0.3 0.7 0.1
v 0.3 0.7 0.1
v 0.5 0.7 0.1
v -0.2 0.8 0.3
v -0.1 0.8 0.3
v 0.1 0.8 0.3
v 0.2 0.8 0.3
v -0.2 0.8 0.2
v -0.1 0.8 0.2
v 0.1 0.8 0.2
v 0.2 0.8 0.2
v -0.2 1.1 0.3
v -0.1 1.1 0.3
v 0.1 1.1 0.3
v 0.2 1.1 0.3
v -0.3 1.1 0.2
v -0.2 1.1 0.2
v -0.1 1.1 0.2
v 0.1 1.1 0.2
v 0.2 1.1 0.2
v 0.3 1.1 0.2
v -0.3 1.1 0.1
v -0.1 1.1 0.1
v 0.1 1.1 0.1
v 0.3 1.1 0.1
v -0.3 1.1 -0.0999999
v -0.1 1.1 -0.0999999
v 0.1 1.1 -0.0999999
v 0.3 1.1 -0.0999999
v -0.3 1.1 -0.3
v 0.3 1.1 -0.3
v -0.4 1.3 1.19209e-007
v -0.3 1.3 1.19209e-007
v 0.3 1.3 1.19209e-007
v 0.4 1.3 1.19209e-007
v -0.4 1.3 -0.2
v -0.3 1.3 -0.2
v 0.3 1.3 -0.2
v 0.4 1.3 -0.2
v -0.2 1.3 -0.3
v 0.2 1.3 -0.3
v -0.2 1.3 -0.4
v 0.2 1.3 -0.4
v -0.2 1.6 0.4
v 0.2 1.6 0.4
v -0.2 1.6 0.2
v 0.2 1.6 0.2
v -0.3 0.2 0.2
v -0.1 0.2 0.2
v 0.1 0.2 0.2
v 0.3 0.2 0.2
v -0.3 0.2 0.1
v -0.1 0.2 0.1
v 0.1 0.2 0.1
v 0.3 0.2 0.1
v -0.2 0.7 0.3
v -0.1 0.7 0.3
v 0.1 0.7 0.3
v 0.2 0.7 0.3
v -0.2 0.7 0.2
v -0.1 0.7 0.2
v 0.1 0.7 0.2
v 0.2 0.7 0.2
v -0.5 0.8 0.2
v -0.3 0.8 0.2
v 0.3 0.8 0.2
v 0.5 0.8 0.2
v -0.5 0.8 0.1
v -0.3 0.8 0.1
v 0.3 0.8 0.1
v 0.5 0.8 0.1
v -0.2 0.9 0.3
v -0.1 0.9 0.3
v 0.1 0.9 0.3
v 0.2 0.9 0.3
v -0.2 0.9 0.2
v -0.1 0.9 0.2
v 0.1 0.9 0.2
v 0.2 0.9 0.2
v -0.2 0.9 -0.2
v 0.2 0.9 -0.2
v -0.2 0.9 -0.3
v 0.2 0.9 -0.3
v -0.1 1 0.3
v 0.1 1 0.3
v -0.3 1 0.2
v -0.1 1 0.2
v 0.1 1 0.2
v 0.3 1 0.2
v -0.3 1 0.1
v -0.1 1 0.1
v 0.1 1 0.1
v 0.3 1 0.1
v -0.3 1 -0.0999999
v -0.1 1 -0.0999999
v 0.1 1 -0.0999999
v 0.3 1 -0.0999999
v -0.3 1 -0.2
v 0.3 1 -0.2
v -0.5 1.1 0.1
v -0.3 1.1 0.1
v 0.3 1.1 0.1
v 0.5 1.1 0.1
v -0.5 1.1 -0.0999999
v -0.3 1.1 -0.0999999
v 0.3 1.1 -0.0999999
v 0.5 1.1 -0.0999999
v -0.2 1.3 0.3
v -0.1 1.3 0.3
v 0.1 1.3 0.3
v 0.2 1.3 0.3
v -0.3 1.3 0.2
v -0.2 1.3 0.2
v -0.1 1.3 0.2
v 0.1 1.3 0.2
v 0.2 1.3 0.2
v 0.3 1.3 0.2
v -0.3 1.3 0.1
v -0.2 1.3 0.1
v 0.2 1.3 0.1
v 0.3 1.3 0.1
v -0.4 1.5 1.19209e-007
v -0.3 1.5 1.19209e-007
v 0.3 1.5 1.19209e-007
v 0.4 1.5 1.19209e-007
v -0.4 1.5 -0.2
v -0.3 1.5 -0.2
v 0.3 1.5 -0.2
v 0.4 1.5 -0.2
v -0.3 1.6 0.1
v -0.2 1.6 0.1
v 0.2 1.6 0.1
v 0.3 1.6 0.1
v -0.3 1.6 -0.3
v -0.2 1.6 -0.3
v 0.2 1.6 -0.3
v 0.3 1.6 -0.3
v -0.2 1.6 -0.4
v 0.2 1.6 -0.4
v -0.2 1.7 0.4
v 0.2 1.7 0.4
v -0.1 1.7 0.1
v 0.1 1.7 0.1
v -0.1 1.7 -0.2
v 0.1 1.7 -0.2
v -0.2 1.7 -0.3
v 0.2 1.7 -0.3
v -0.1 1.8 0.1
v 0.1 1.8 0.1
v -0.1 1.8 -0.2
v 0.1 1.8 -0.2

# faces
f 4/2/1 2/2/1 1/2/1
f 5/4/1 4/4/1 3/4/1
f 6/2/1 2/2/1 4/2/1
f 6/4/1 4/4/1 5/4/1
f 7/2/1 2/2/1 6/2/1
f 8/2/1 2/2/1 7/2/1
f 9/1/1 8/1/1 7/1/1
f 10/1/1 8/1/1 9/1/1
f 13/1/1 12/1/1 11/1/1
f 14/1/1 12/1/1 13/1/1
f 18/2/1 16/2/1 15/2/1
f 19/1/1 18/1/1 17/1/1
f 20/2/1 16/2/1 18/2/1
f 20/1/1 18/1/1 19/1/1
f 22/2/1 16/2/1 20/2/1
f 23/2/1 16/2/1 22/2/1
f 25/1/1 22/1/1 21/1/1
f 25/2/1 23/2/1 22/2/1
f 26/1/1 24/1/1 23/1/1
f 26/2/1 23/2/1 25/2/1
f 27/1/1 25/1/1 21/1/1
f 28/1/1 25/1/1 27/1/1
f 31/1/1 30/1/1 29/1/1
f 32/1/1 30/1/1 31/1/1
f 33/1/1 24/1/1 26/1/1
f 34/1/1 24/1/1 33/1/1
f 39/1/1 37/1/1 36/1/1
f 39/1/1 38/1/1 37/1/1
f 39/1/1 36/1/1 35/1/1
f 40/1/1 38/1/1 39/1/1
f 41/1/1 38/1/1 40/1/1
f 42/1/1 38/1/1 41/1/1
f 43/1/1 41/1/1 40/1/1
f 44/1/1 38/1/1 42/1/1
f 45/1/1 43/1/1 40/1/1
f 45/1/1 44/1/1 43/1/1
f 46/1/1 38/1/1 44/1/1
f 46/1/1 44/1/1 45/1/1
f 51/4/1 50/4/1 49/4/1
f 52/4/1 50/4/1 51/4/1
f 55/4/1 54/4/1 53/4/1
f 56/4/1 54/4/1 55/4/1
f 57/4/1 48/4/1 47/4/1
f 58/4/1 48/4/1 57/4/1
f 61/1/1 60/1/1 59/1/1
f 62/1/1 60/1/1 61/1/1
f 66/2/1 63/2/1 62/2/1
f 67/2/1 63/2/1 66/2/1
f 68/3/1 67/3/1 66/3/1
f 69/3/1 67/3/1 68/3/1
f 71/2/1 69/2/1 68/2/1
f 72/2/1 69/2/1 71/2/1
f 73/1/1 65/1/1 64/1/1
f 74/1/1 65/1/1 73/1/1
f 75/1/1 72/1/1 71/1/1
f 75/1/1 71/1/1 70/1/1
f 75/1/1 73/1/1 72/1/1
f 76/1/1 73/1/1 75/1/1
f 79/4/1 78/4/1 77/4/1
f 80/4/1 78/4/1 79/4/1
f 83/4/1 82/4/1 81/4/1
f 84/4/1 82/4/1 83/4/1
f 87/4/1 86/4/1 85/4/1
f 88/4/1 86/4/1 87/4/1
f 91/1/1 90/1/1 89/1/1
f 92/1/1 90/1/1 91/1/1
f 96/2/1 94/2/1 93/2/1
f 97/1/1 96/1/1 95/1/1
f 98/2/1 94/2/1 96/2/1
f 98/1/1 96/1/1 97/1/1
f 99/2/1 94/2/1 98/2/1
f 100/2/1 94/2/1 99/2/1
f 101/2/2 102/2/2 104/2/2
f 103/1/2 104/1/2 105/1/2
f 104/2/2 102/2/2 106/2/2
f 105/1/2 104/1/2 106/1/2
f 106/2/2 102/2/2 107/2/2
f 107/2/2 102/2/2 108/2/2
f 109/4/2 110/4/2 111/4/2
f 111/4/2 110/4/2 112/4/2
f 113/4/2 114/4/2 115/4/2
f 115/4/2 114/4/2 116/4/2
f 117/4/2 118/4/2 119/4/2
f 119/4/2 118/4/2 120/4/2
f 121/1/2 122/1/2 123/1/2
f 123/1/2 122/1/2 124/1/2
f 127/4/2 128/4/2 129/4/2
f 129/4/2 128/4/2 130/4/2
f 131/4/2 132/4/2 133/4/2
f 133/4/2 132/4/2 134/4/2
f 125/4/2 126/4/2 135/4/2
f 135/4/2 126/4/2 136/4/2
f 137/1/2 138/1/2 139/1/2
f 139/1/2 138/1/2 140/1/2
f 140/2/2 141/2/2 144/2/2
f 144/2/2 141/2/2 145/2/2
f 144/3/2 145/3/2 146/3/2
f 146/3/2 145/3/2 147/3/2
f 146/2/2 147/2/2 149/2/2
f 149/2/2 147/2/2 150/2/2
f 142/1/2 143/1/2 151/1/2
f 151/1/2 143/1/2 152/1/2
f 149/1/2 150/1/2 153/1/2
f 148/1/2 149/1/2 153/1/2
f 150/1/2 151/1/2 153/1/2
f 153/1/2 151/1/2 154/1/2
f 155/2/2 156/2/2 158/2/2
f 157/1/2 158/1/2 159/1/2
f 158/2/2 156/2/2 160/2/2
f 159/1/2 158/1/2 160/1/2
f 160/2/2 156/2/2 162/2/2
f 162/2/2 156/2/2 163/2/2
f 161/1/2 162/1/2 165/1/2
f 162/2/2 163/2/2 165/2/2
f 163/1/2 164/1/2 166/1/2
f 165/2/2 163/2/2 166/2/2
f 161/1/2 165/1/2 167/1/2
f 167/1/2 165/1/2 168/1/2
f 169/1/2 170/1/2 171/1/2
f 171/1/2 170/1/2 172/1/2
f 166/1/2 164/1/2 173/1/2
f 173/1/2 164/1/2 174/1/2
f 176/1/2 177/1/2 179/1/2
f 177/1/2 178/1/2 179/1/2
f 175/1/2 176/1/2 179/1/2
f 179/1/2 178/1/2 180/1/2
f 180/1/2 178/1/2 181/1/2
f 181/1/2 178/1/2 182/1/2
f 180/1/2 181/1/2 183/1/2
f 182/1/2 178/1/2 184/1/2
f 180/1/2 183/1/2 185/1/2
f 183/1/2 184/1/2 185/1/2
f 184/1/2 178/1/2 186/1/2
f 185/1/2 184/1/2 186/1/2
f 187/1/2 188/1/2 189/1/2
f 189/1/2 188/1/2 190/1/2
f 191/2/2 192/2/2 194/2/2
f 193/4/2 194/4/2 195/4/2
f 194/2/2 192/2/2 196/2/2
f 195/4/2 194/4/2 196/4/2
f 196/2/2 192/2/2 197/2/2
f 197/2/2 192/2/2 198/2/2
f 197/1/2 198/1/2 199/1/2
f 199/1/2 198/1/2 200/1/2
f 203/1/3 202/1/3 201/1/3
f 204/1/3 202/1/3 203/1/3
f 212/4/3 206/4/3 205/4/3
f 213/4/3 206/4/3 212/4/3
f 214/4/3 208/4/3 207/4/3
f 215/4/3 208/4/3 214/4/3
f 217/1/3 210/1/3 209/1/3
f 218/1/3 210/1/3 217/1/3
f 219/4/3 216/4/3 215/4/3
f 219/4/3 213/4/3 212/4/3
f 219/4/3 212/4/3 211/4/3
f 219/4/3 214/4/3 213/4/3
f 219/4/3 215/4/3 214/4/3
f 220/4/3 216/4/3 219/4/3
f 221/4/3 216/4/3 220/4/3
f 222/4/3 216/4/3 221/4/3
f 223/4/3 216/4/3 222/4/3
f 224/4/3 216/4/3 223/4/3
f 225/4/3 218/4/3 217/4/3
f 226/4/3 218/4/3 225/4/3
f 227/4/3 221/4/3 220/4/3
f 228/4/3 221/4/3 227/4/3
f 229/4/3 223/4/3 222/4/3
f 230/4/3 223/4/3 229/4/3
f 231/1/3 226/1/3 225/1/3
f 232/1/3 226/1/3 231/1/3
f 238/4/3 234/4/3 233/4/3
f 239/4/3 234/4/3 238/4/3
f 243/1/3 238/1/3 237/1/3
f 243/1/3 239/1/3 238/1/3
f 243/1/3 240/1/3 239/1/3
f 244/1/3 240/1/3 243/1/3
f 245/1/3 240/1/3 244/1/3
f 246/1/3 240/1/3 245/1/3
f 247/1/3 242/1/3 241/1/3
f 248/1/3 242/1/3 247/1/3
f 252/1/3 236/1/3 235/1/3
f 253/1/3 236/1/3 252/1/3
f 254/1/3 243/1/3 237/1/3
f 255/1/3 243/1/3 254/1/3
f 256/1/3 245/1/3 244/1/3
f 257/1/3 245/1/3 256/1/3
f 258/1/3 240/1/3 246/1/3
f 259/1/3 240/1/3 258/1/3
f 260/2/3 249/2/3 248/2/3
f 261/3/3 250/3/3 249/3/3
f 261/2/3 249/2/3 260/2/3
f 262/2/3 251/2/3 250/2/3
f 262/3/3 250/3/3 261/3/3
f 265/1/3 254/1/3 237/1/3
f 271/2/3 261/2/3 260/2/3
f 271/2/3 262/2/3 261/2/3
f 272/2/3 262/2/3 271/2/3
f 273/2/3 251/2/3 262/2/3
f 273/2/3 262/2/3 272/2/3
f 274/1/3 266/1/3 265/1/3
f 275/1/3 268/1/3 267/1/3
f 276/1/3 268/1/3 275/1/3
f 277/1/3 270/1/3 269/1/3
f 279/2/3 272/2/3 271/2/3
f 280/3/3 273/3/3 272/3/3
f 280/2/3 272/2/3 279/2/3
f 281/2/3 251/2/3 273/2/3
f 281/3/3 273/3/3 280/3/3
f 282/2/3 251/2/3 281/2/3
f 283/1/3 264/1/3 263/1/3
f 284/1/3 264/1/3 283/1/3
f 285/1/3 276/1/3 275/1/3
f 285/1/3 277/1/3 276/1/3
f 285/1/3 274/1/3 265/1/3
f 285/1/3 265/1/3 237/1/3
f 285/1/3 275/1/3 274/1/3
f 286/1/3 277/1/3 285/1/3
f 287/1/3 277/1/3 286/1/3
f 288/1/3 270/1/3 277/1/3
f 288/1/3 277/1/3 287/1/3
f 289/1/3 279/1/3 278/1/3
f 290/1/3 279/1/3 289/1/3
f 291/4/3 287/4/3 286/4/3
f 292/4/3 287/4/3 291/4/3
f 302/2/3 294/2/3 293/2/3
f 303/2/3 294/2/3 302/2/3
f 304/2/3 296/2/3 295/2/3
f 305/1/3 297/1/3 296/1/3
f 305/2/3 296/2/3 304/2/3
f 306/1/3 297/1/3 305/1/3
f 309/1/3 308/1/3 307/1/3
f 310/1/3 308/1/3 309/1/3
f 311/1/3 308/1/3 310/1/3
f 312/1/3 308/1/3 311/1/3
f 313/2/3 299/2/3 298/2/3
f 314/2/3 299/2/3 313/2/3
f 315/2/3 301/2/3 300/2/3
f 316/2/3 301/2/3 315/2/3
f 317/1/3 306/1/3 305/1/3
f 318/1/3 306/1/3 317/1/3
f 325/2/3 318/2/3 317/2/3
f 326/2/3 318/2/3 325/2/3
f 327/1/3 320/1/3 319/1/3
f 328/1/3 320/1/3 327/1/3
f 333/2/3 322/2/3 321/2/3
f 334/2/3 322/2/3 333/2/3
f 335/2/3 324/2/3 323/2/3
f 336/2/3 324/2/3 335/2/3
f 340/1/3 326/1/3 325/1/3
f 341/1/3 326/1/3 340/1/3
f 342/1/3 332/1/3 331/1/3
f 342/1/3 330/1/3 329/1/3
f 342/1/3 331/1/3 330/1/3
f 343/1/3 332/1/3 342/1/3
f 344/2/3 338/2/3 337/2/3
f 345/2/3 338/2/3 344/2/3
f 346/2/3 340/2/3 339/2/3
f 347/1/3 341/1/3 340/1/3
f 347/2/3 340/2/3 346/2/3
f 348/1/3 341/1/3 347/1/3
f 351/1/3 350/1/3 349/1/3
f 352/1/3 350/1/3 351/1/3
f 355/1/3 354/1/3 353/1/3
f 356/1/3 354/1/3 355/1/3
f 357/2/4 358/2/4 362/2/4
f 358/1/4 359/1/4 363/1/4
f 362/2/4 358/2/4 363/2/4
f 363/1/4 359/1/4 364/1/4
f 360/2/4 361/2/4 365/2/4
f 365/2/4 361/2/4 366/2/4
f 363/1/4 364/1/4 367/1/4
f 367/1/4 364/1/4 368/1/4
f 367/2/4 368/2/4 371/2/4
f 371/2/4 368/2/4 372/2/4
f 369/2/4 370/2/4 373/2/4
f 373/2/4 370/2/4 374/2/4
f 371/1/4 372/1/4 376/1/4
f 376/1/4 372/1/4 377/1/4
f 375/2/4 376/2/4 378/2/4
f 376/1/4 377/1/4 379/1/4
f 378/2/4 376/2/4 379/2/4
f 379/1/4 377/1/4 380/1/4
f 381/1/4 382/1/4 385/1/4
f 385/1/4 382/1/4 386/1/4
f 383/1/4 384/1/4 387/1/4
f 387/1/4 384/1/4 388/1/4
f 389/1/4 390/1/4 391/1/4
f 391/1/4 390/1/4 392/1/4
f 383/1/4 387/1/4 393/1/4
f 388/1/4 384/1/4 394/1/4
f 383/1/4 393/1/4 395/1/4
f 393/1/4 394/1/4 395/1/4
f 394/1/4 384/1/4 396/1/4
f 395/1/4 394/1/4 396/1/4
f 397/1/4 398/1/4 399/1/4
f 399/1/4 398/1/4 400/1/4
f 401/1/4 402/1/4 405/1/4
f 405/1/4 402/1/4 406/1/4
f 403/4/4 404/4/4 408/4/4
f 408/4/4 404/4/4 409/4/4
f 401/1/4 405/1/4 410/1/4
f 406/1/4 407/1/4 411/1/4
f 411/1/4 407/1/4 412/1/4
f 401/1/4 410/1/4 413/1/4
f 410/1/4 411/1/4 413/1/4
f 413/1/4 411/1/4 414/1/4
f 415/1/4 416/1/4 417/1/4
f 417/1/4 416/1/4 418/1/4
f 423/2/5 420/2/5 419/2/5
f 424/2/5 420/2/5 423/2/5
f 425/2/5 422/2/5 421/2/5
f 426/2/5 422/2/5 425/2/5
f 431/1/5 428/1/5 427/1/5
f 432/1/5 428/1/5 431/1/5
f 433/1/5 430/1/5 429/1/5
f 434/1/5 430/1/5 433/1/5
f 437/1/5 436/1/5 435/1/5
f 438/1/5 436/1/5 437/1/5
f 439/1/5 436/1/5 438/1/5
f 440/1/5 436/1/5 439/1/5
f 442/2/5 439/2/5 438/2/5
f 443/2/5 439/2/5 442/2/5
f 445/1/5 442/1/5 441/1/5
f 445/1/5 444/1/5 443/1/5
f 445/1/5 443/1/5 442/1/5
f 446/1/5 444/1/5 445/1/5
f 449/4/5 448/4/5 447/4/5
f 450/4/5 448/4/5 449/4/5
f 453/4/5 452/4/5 451/4/5
f 454/4/5 452/4/5 453/4/5
f 459/4/5 456/4/5 455/4/5
f 460/4/5 456/4/5 459/4/5
f 461/4/5 458/4/5 457/4/5
f 462/4/5 458/4/5 461/4/5
f 467/2/5 464/2/5 463/2/5
f 468/2/5 464/2/5 467/2/5
f 469/2/5 466/2/5 465/2/5
f 470/2/5 466/2/5 469/2/5
f 475/4/5 472/4/5 471/4/5
f 476/4/5 472/4/5 475/4/5
f 477/4/5 474/4/5 473/4/5
f 478/4/5 474/4/5 477/4/5
f 483/4/5 480/4/5 479/4/5
f 484/4/5 480/4/5 483/4/5
f 485/4/5 482/4/5 481/4/5
f 486/4/5 482/4/5 485/4/5
f 492/1/5 488/1/5 487/1/5
f 493/4/5 489/4/5 488/4/5
f 493/1/5 488/1/5 492/1/5
f 494/1/5 490/1/5 489/1/5
f 494/4/5 489/4/5 493/4/5
f 495/1/5 490/1/5 494/1/5
f 497/1/5 493/1/5 492/1/5
f 497/1/5 496/1/5 495/1/5
f 497/1/5 495/1/5 494/1/5
f 497/1/5 494/1/5 493/1/5
f 497/1/5 492/1/5 491/1/5
f 498/1/5 496/1/5 497/1/5
f 499/1/5 496/1/5 498/1/5
f 500/1/5 496/1/5 499/1/5
f 505/1/5 502/1/5 501/1/5
f 505/1/5 504/1/5 503/1/5
f 505/1/5 503/1/5 502/1/5
f 506/1/5 504/1/5 505/1/5
f 511/1/5 508/1/5 507/1/5
f 512/1/5 508/1/5 511/1/5
f 513/1/5 510/1/5 509/1/5
f 514/1/5 510/1/5 513/1/5
f 517/1/5 516/1/5 515/1/5
f 518/1/5 516/1/5 517/1/5
f 521/1/5 520/1/5 519/1/5
f 522/1/5 520/1/5 521/1/5
f 523/1/6 524/1/6 527/1/6
f 527/1/6 524/1/6 528/1/6
f 525/1/6 526/1/6 529/1/6
f 529/1/6 526/1/6 530/1/6
f 531/4/6 532/4/6 535/4/6
f 535/4/6 532/4/6 536/4/6
f 533/4/6 534/4/6 537/4/6
f 537/4/6 534/4/6 538/4/6
f 539/4/6 540/4/6 543/4/6
f 543/4/6 540/4/6 544/4/6
f 541/4/6 542/4/6 545/4/6
f 545/4/6 542/4/6 546/4/6
f 547/4/6 548/4/6 551/4/6
f 551/4/6 548/4/6 552/4/6
f 549/4/6 550/4/6 553/4/6
f 553/4/6 550/4/6 554/4/6
f 555/4/6 556/4/6 557/4/6
f 557/4/6 556/4/6 558/4/6
f 559/4/6 560/4/6 562/4/6
f 562/4/6 560/4/6 563/4/6
f 561/1/6 562/1/6 565/1/6
f 563/1/6 564/1/6 565/1/6
f 562/1/6 563/1/6 565/1/6
f 565/1/6 564/1/6 566/1/6
f 566/1/6 564/1/6 567/1/6
f 567/1/6 564/1/6 568/1/6
f 569/1/6 570/1/6 573/1/6
f 571/1/6 572/1/6 573/1/6
f 570/1/6 571/1/6 573/1/6
f 573/1/6 572/1/6 574/1/6
f 575/1/6 576/1/6 579/1/6
f 579/1/6 576/1/6 580/1/6
f 577/1/6 578/1/6 581/1/6
f 581/1/6 578/1/6 582/1/6
f 583/1/6 584/1/6 588/1/6
f 584/4/6 585/4/6 589/4/6
f 588/1/6 584/1/6 589/1/6
f 585/1/6 586/1/6 590/1/6
f 589/4/6 585/4/6 590/4/6
f 590/1/6 586/1/6 591/1/6
f 587/1/6 588/1/6 593/1/6
f 593/1/6 588/1/6 594/1/6
f 591/1/6 592/1/6 595/1/6
f 595/1/6 592/1/6 596/1/6
f 597/1/6 598/1/6 601/1/6
f 601/1/6 598/1/6 602/1/6
f 599/1/6 600/1/6 603/1/6
f 603/1/6 600/1/6 604/1/6
f 605/1/6 606/1/6 609/1/6
f 609/1/6 606/1/6 610/1/6
f 607/1/6 608/1/6 611/1/6
f 611/1/6 608/1/6 612/1/6
f 610/1/6 611/1/6 613/1/6
f 613/1/6 611/1/6 614/1/6
f 615/1/6 616/1/6 617/1/6
f 617/1/6 616/1/6 618/1/6
f 615/1/6 617/1/6 619/1/6
f 618/1/6 616/1/6 620/1/6
f 615/1/6 619/1/6 621/1/6
f 619/1/6 620/1/6 621/1/6
f 620/1/6 616/1/6 622/1/6
f 621/1/6 620/1/6 622/1/6
f 623/1/6 624/1/6 625/1/6
f 625/1/6 624/1/6 626/1/6
