# MagicaVoxel @ Ephtracy

# group
o 

# material
mtllib Soldier.mtl
usemtl palette

# normals
vn -1 0 0
vn 1 0 0
vn 0 0 1
vn 0 0 -1
vn 0 -1 0
vn 0 1 0

# texcoords
vt 0.314453 0.5
vt 0.912109 0.5
vt 0.970703 0.5
vt 0.978516 0.5

# verts
v -0.5 0.6 0.1
v -0.5 0.6 -0.0999999
v -0.5 0.7 0.2
v -0.5 0.7 0.1
v -0.5 0.8 0.2
v -0.5 0.8 0.1
v -0.5 1 0.1
v -0.5 1 -0.0999999
v -0.5 1.1 0.1
v -0.5 1.1 -0.0999999
v -0.4 1.3 1.19209e-007
v -0.4 1.3 -0.2
v -0.4 1.5 1.19209e-007
v -0.4 1.5 -0.2
v -0.3 0 0.1
v -0.3 0 -0.0999999
v -0.3 0.1 0.2
v -0.3 0.1 0.1
v -0.3 0.2 0.2
v -0.3 0.2 0.1
v -0.3 0.4 0.2
v -0.3 0.4 0.1
v -0.3 0.4 -0.0999999
v -0.3 0.4 -0.2
v -0.3 0.5 0.2
v -0.3 0.5 0.1
v -0.3 0.6 0.2
v -0.3 0.6 0.1
v -0.3 0.6 -0.0999999
v -0.3 0.7 0.2
v -0.3 0.7 0.1
v -0.3 0.8 0.2
v -0.3 0.8 0.1
v -0.3 1 0.2
v -0.3 1 0.1
v -0.3 1 -0.0999999
v -0.3 1 -0.2
v -0.3 1.1 0.2
v -0.3 1.1 0.1
v -0.3 1.1 -0.0999999
v -0.3 1.1 -0.3
v -0.3 1.3 0.2
v -0.3 1.3 0.1
v -0.3 1.3 1.19209e-007
v -0.3 1.3 -0.2
v -0.3 1.5 1.19209e-007
v -0.3 1.5 -0.2
v -0.3 1.6 0.1
v -0.3 1.6 -0.3
v -0.2 0.5 0.3
v -0.2 0.5 0.2
v -0.2 0.5 0.1
v -0.2 0.5 -0.2
v -0.2 0.5 -0.3
v -0.2 0.6 0.2
v -0.2 0.6 0.1
v -0.2 0.9 0.3
v -0.2 0.9 0.2
v -0.2 0.9 -0.2
v -0.2 0.9 -0.3
v -0.2 1.1 0.3
v -0.2 1.1 0.2
v -0.2 1.3 0.3
v -0.2 1.3 0.2
v -0.2 1.3 0.1
v -0.2 1.3 -0.3
v -0.2 1.3 -0.4
v -0.2 1.4 0.2
v -0.2 1.4 0.1
v -0.2 1.5 0.2
v -0.2 1.5 0.1
v -0.2 1.6 0.4
v -0.2 1.6 0.2
v -0.2 1.6 0.1
v -0.2 1.6 -0.3
v -0.2 1.6 -0.4
v -0.2 1.7 0.4
v -0.2 1.7 -0.3
v -0.1 1.7 0.1
v -0.1 1.7 -0.2
v -0.1 1.8 0.1
v -0.1 1.8 -0.2
v 0.1 0 0.1
v 0.1 0 -0.0999999
v 0.1 0.1 0.2
v 0.1 0.1 0.1
v 0.1 0.2 0.2
v 0.1 0.2 0.1
v 0.1 0.4 0.1
v 0.1 0.4 -0.0999999
v -0.1 0 0.1
v -0.1 0 -0.0999999
v -0.1 0.1 0.2
v -0.1 0.1 0.1
v -0.1 0.2 0.2
v -0.1 0.2 0.1
v -0.1 0.4 0.1
v -0.1 0.4 -0.0999999
v 0.1 1.7 0.1
v 0.1 1.7 -0.2
v 0.1 1.8 0.1
v 0.1 1.8 -0.2
v 0.2 0.5 0.3
v 0.2 0.5 0.2
v 0.2 0.5 -0.2
v 0.2 0.5 -0.3
v 0.2 0.9 0.3
v 0.2 0.9 0.2
v 0.2 0.9 -0.2
v 0.2 0.9 -0.3
v 0.2 1.1 0.3
v 0.2 1.1 0.2
v 0.2 1.3 0.3
v 0.2 1.3 0.2
v 0.2 1.3 0.1
v 0.2 1.3 -0.3
v 0.2 1.3 -0.4
v 0.2 1.4 0.2
v 0.2 1.4 0.1
v 0.2 1.5 0.2
v 0.2 1.5 0.1
v 0.2 1.6 0.4
v 0.2 1.6 0.2
v 0.2 1.6 0.1
v 0.2 1.6 -0.3
v 0.2 1.6 -0.4
v 0.2 1.7 0.4
v 0.2 1.7 -0.3
v 0.3 0 0.1
v 0.3 0 -0.0999999
v 0.3 0.1 0.2
v 0.3 0.1 0.1
v 0.3 0.2 0.2
v 0.3 0.2 0.1
v 0.3 0.4 0.2
v 0.3 0.4 0.1
v 0.3 0.4 -0.0999999
v 0.3 0.4 -0.2
v 0.3 0.6 0.1
v 0.3 0.6 -0.0999999
v 0.3 0.7 0.2
v 0.3 0.7 0.1
v 0.3 0.8 0.2
v 0.3 0.8 0.1
v 0.3 1 0.2
v 0.3 1 0.1
v 0.3 1 -0.0999999
v 0.3 1 -0.2
v 0.3 1.1 0.2
v 0.3 1.1 0.1
v 0.3 1.1 -0.0999999
v 0.3 1.1 -0.3
v 0.3 1.3 0.2
v 0.3 1.3 0.1
v 0.3 1.3 1.19209e-007
v 0.3 1.3 -0.2
v 0.3 1.5 1.19209e-007
v 0.3 1.5 -0.2
v 0.3 1.6 0.1
v 0.3 1.6 -0.3
v 0.4 1.3 1.19209e-007
v 0.4 1.3 -0.2
v 0.4 1.5 1.19209e-007
v 0.4 1.5 -0.2
v 0.5 0.6 0.1
v 0.5 0.6 -0.0999999
v 0.5 0.7 0.2
v 0.5 0.7 0.1
v 0.5 0.8 0.2
v 0.5 0.8 0.1
v 0.5 1 0.1
v 0.5 1 -0.0999999
v 0.5 1.1 0.1
v 0.5 1.1 -0.0999999
v -0.2 1.6 0.4
v -0.2 1.7 0.4
v 0.2 1.6 0.4
v 0.2 1.7 0.4
v -0.2 0.5 0.3
v -0.2 0.9 0.3
v -0.2 1.1 0.3
v -0.2 1.3 0.3
v 0.2 0.5 0.3
v 0.2 0.9 0.3
v 0.2 1.1 0.3
v 0.2 1.3 0.3
v -0.5 0.7 0.2
v -0.5 0.8 0.2
v -0.3 0.1 0.2
v -0.3 0.2 0.2
v -0.3 0.4 0.2
v -0.3 0.5 0.2
v -0.3 0.6 0.2
v -0.3 0.7 0.2
v -0.3 0.8 0.2
v -0.3 1 0.2
v -0.3 1.1 0.2
v -0.3 1.3 0.2
v -0.2 0.5 0.2
v -0.2 0.6 0.2
v -0.2 0.9 0.2
v -0.2 1.1 0.2
v -0.2 1.3 0.2
v -0.2 1.4 0.2
v -0.2 1.5 0.2
v -0.2 1.6 0.2
v -0.1 0.1 0.2
v -0.1 0.2 0.2
v -0.1 1.4 0.2
v -0.1 1.5 0.2
v 0.1 0.1 0.2
v 0.1 0.2 0.2
v 0.1 1.4 0.2
v 0.1 1.5 0.2
v 0.2 0.5 0.2
v 0.2 0.9 0.2
v 0.2 1.1 0.2
v 0.2 1.3 0.2
v 0.2 1.4 0.2
v 0.2 1.5 0.2
v 0.2 1.6 0.2
v 0.3 0.1 0.2
v 0.3 0.2 0.2
v 0.3 0.4 0.2
v 0.3 0.7 0.2
v 0.3 0.8 0.2
v 0.3 1 0.2
v 0.3 1.1 0.2
v 0.3 1.3 0.2
v 0.5 0.7 0.2
v 0.5 0.8 0.2
v -0.5 0.6 0.1
v -0.5 0.7 0.1
v -0.5 0.8 0.1
v -0.5 1 0.1
v -0.5 1.1 0.1
v -0.3 0 0.1
v -0.3 0.1 0.1
v -0.3 0.2 0.1
v -0.3 0.4 0.1
v -0.3 0.5 0.1
v -0.3 0.6 0.1
v -0.3 0.7 0.1
v -0.3 0.8 0.1
v -0.3 1 0.1
v -0.3 1.1 0.1
v -0.3 1.3 0.1
v -0.3 1.6 0.1
v -0.2 0.5 0.1
v -0.2 0.6 0.1
v -0.2 1.3 0.1
v -0.2 1.4 0.1
v -0.2 1.5 0.1
v -0.2 1.6 0.1
v -0.1 0 0.1
v -0.1 0.1 0.1
v -0.1 0.2 0.1
v -0.1 0.4 0.1
v -0.1 1 0.1
v -0.1 1.1 0.1
v -0.1 1.7 0.1
v -0.1 1.8 0.1
v 0.1 0 0.1
v 0.1 0.1 0.1
v 0.1 0.2 0.1
v 0.1 0.4 0.1
v 0.1 1 0.1
v 0.1 1.1 0.1
v 0.1 1.7 0.1
v 0.1 1.8 0.1
v 0.2 1.3 0.1
v 0.2 1.4 0.1
v 0.2 1.5 0.1
v 0.2 1.6 0.1
v 0.3 0 0.1
v 0.3 0.1 0.1
v 0.3 0.2 0.1
v 0.3 0.4 0.1
v 0.3 0.6 0.1
v 0.3 0.7 0.1
v 0.3 0.8 0.1
v 0.3 1 0.1
v 0.3 1.1 0.1
v 0.3 1.3 0.1
v 0.3 1.6 0.1
v 0.5 0.6 0.1
v 0.5 0.7 0.1
v 0.5 0.8 0.1
v 0.5 1 0.1
v 0.5 1.1 0.1
v -0.4 1.3 1.19209e-007
v -0.4 1.5 1.19209e-007
v -0.3 1.3 1.19209e-007
v -0.3 1.5 1.19209e-007
v 0.3 1.3 1.19209e-007
v 0.3 1.5 1.19209e-007
v 0.4 1.3 1.19209e-007
v 0.4 1.5 1.19209e-007
v -0.5 0.6 -0.0999999
v -0.5 1 -0.0999999
v -0.5 1.1 -0.0999999
v -0.3 0 -0.0999999
v -0.3 0.4 -0.0999999
v -0.3 0.6 -0.0999999
v -0.3 1 -0.0999999
v -0.3 1.1 -0.0999999
v -0.1 0 -0.0999999
v -0.1 0.4 -0.0999999
v -0.1 1 -0.0999999
v -0.1 1.1 -0.0999999
v 0.1 0 -0.0999999
v 0.1 0.4 -0.0999999
v 0.1 1 -0.0999999
v 0.1 1.1 -0.0999999
v 0.3 0 -0.0999999
v 0.3 0.4 -0.0999999
v 0.3 0.6 -0.0999999
v 0.3 1 -0.0999999
v 0.3 1.1 -0.0999999
v 0.5 0.6 -0.0999999
v 0.5 1 -0.0999999
v 0.5 1.1 -0.0999999
v -0.4 1.3 -0.2
v -0.4 1.5 -0.2
v -0.3 0.4 -0.2
v -0.3 1 -0.2
v -0.3 1.3 -0.2
v -0.3 1.5 -0.2
v -0.2 0.5 -0.2
v -0.2 0.9 -0.2
v -0.1 1.7 -0.2
v -0.1 1.8 -0.2
v 0.1 1.7 -0.2
v 0.1 1.8 -0.2
v 0.2 0.5 -0.2
v 0.2 0.9 -0.2
v 0.3 0.4 -0.2
v 0.3 1 -0.2
v 0.3 1.3 -0.2
v 0.3 1.5 -0.2
v 0.4 1.3 -0.2
v 0.4 1.5 -0.2
v -0.3 1.1 -0.3
v -0.3 1.6 -0.3
v -0.2 0.5 -0.3
v -0.2 0.9 -0.3
v -0.2 1.3 -0.3
v -0.2 1.6 -0.3
v -0.2 1.7 -0.3
v 0.2 0.5 -0.3
v 0.2 0.9 -0.3
v 0.2 1.3 -0.3
v 0.2 1.6 -0.3
v 0.2 1.7 -0.3
v 0.3 1.1 -0.3
v 0.3 1.6 -0.3
v -0.2 1.3 -0.4
v -0.2 1.6 -0.4
v 0.2 1.3 -0.4
v 0.2 1.6 -0.4
v -0.3 0 0.1
v -0.1 0 0.1
v 0.1 0 0.1
v 0.3 0 0.1
v -0.3 0 -0.0999999
v -0.1 0 -0.0999999
v 0.1 0 -0.0999999
v 0.3 0 -0.0999999
v -0.3 0.1 0.2
v -0.1 0.1 0.2
v 0.1 0.1 0.2
v 0.3 0.1 0.2
v -0.3 0.1 0.1
v -0.1 0.1 0.1
v 0.1 0.1 0.1
v 0.3 0.1 0.1
v -0.3 0.4 0.2
v 0.3 0.4 0.2
v -0.3 0.4 0.1
v -0.1 0.4 0.1
v 0.1 0.4 0.1
v 0.3 0.4 0.1
v -0.3 0.4 -0.0999999
v -0.1 0.4 -0.0999999
v 0.1 0.4 -0.0999999
v 0.3 0.4 -0.0999999
v -0.3 0.4 -0.2
v 0.3 0.4 -0.2
v -0.2 0.5 0.3
v 0.2 0.5 0.3
v -0.2 0.5 0.2
v 0.2 0.5 0.2
v -0.2 0.5 -0.2
v 0.2 0.5 -0.2
v -0.2 0.5 -0.3
v 0.2 0.5 -0.3
v -0.3 0.6 0.2
v -0.2 0.6 0.2
v -0.5 0.6 0.1
v -0.3 0.6 0.1
v -0.2 0.6 0.1
v 0.3 0.6 0.1
v 0.5 0.6 0.1
v -0.5 0.6 -0.0999999
v -0.3 0.6 -0.0999999
v 0.3 0.6 -0.0999999
v 0.5 0.6 -0.0999999
v -0.5 0.7 0.2
v -0.3 0.7 0.2
v 0.3 0.7 0.2
v 0.5 0.7 0.2
v -0.5 0.7 0.1
v -0.3 0.7 0.1
v 0.3 0.7 0.1
v 0.5 0.7 0.1
v -0.2 1.1 0.3
v 0.2 1.1 0.3
v -0.3 1.1 0.2
v -0.2 1.1 0.2
v 0.2 1.1 0.2
v 0.3 1.1 0.2
v -0.3 1.1 0.1
v -0.1 1.1 0.1
v 0.1 1.1 0.1
v 0.3 1.1 0.1
v -0.3 1.1 -0.0999999
v -0.1 1.1 -0.0999999
v 0.1 1.1 -0.0999999
v 0.3 1.1 -0.0999999
v -0.3 1.1 -0.3
v 0.3 1.1 -0.3
v -0.4 1.3 1.19209e-007
v -0.3 1.3 1.19209e-007
v 0.3 1.3 1.19209e-007
v 0.4 1.3 1.19209e-007
v -0.4 1.3 -0.2
v -0.3 1.3 -0.2
v 0.3 1.3 -0.2
v 0.4 1.3 -0.2
v -0.2 1.3 -0.3
v 0.2 1.3 -0.3
v -0.2 1.3 -0.4
v 0.2 1.3 -0.4
v -0.2 1.6 0.4
v 0.2 1.6 0.4
v -0.2 1.6 0.2
v 0.2 1.6 0.2
v -0.3 0.2 0.2
v -0.1 0.2 0.2
v 0.1 0.2 0.2
v 0.3 0.2 0.2
v -0.3 0.2 0.1
v -0.1 0.2 0.1
v 0.1 0.2 0.1
v 0.3 0.2 0.1
v -0.3 0.5 0.2
v -0.2 0.5 0.2
v -0.3 0.5 0.1
v -0.2 0.5 0.1
v -0.5 0.8 0.2
v -0.3 0.8 0.2
v 0.3 0.8 0.2
v 0.5 0.8 0.2
v -0.5 0.8 0.1
v -0.3 0.8 0.1
v 0.3 0.8 0.1
v 0.5 0.8 0.1
v -0.2 0.9 0.3
v 0.2 0.9 0.3
v -0.2 0.9 0.2
v 0.2 0.9 0.2
v -0.2 0.9 -0.2
v 0.2 0.9 -0.2
v -0.2 0.9 -0.3
v 0.2 0.9 -0.3
v -0.3 1 0.2
v 0.3 1 0.2
v -0.3 1 0.1
v -0.1 1 0.1
v 0.1 1 0.1
v 0.3 1 0.1
v -0.3 1 -0.0999999
v -0.1 1 -0.0999999
v 0.1 1 -0.0999999
v 0.3 1 -0.0999999
v -0.3 1 -0.2
v 0.3 1 -0.2
v -0.5 1.1 0.1
v -0.3 1.1 0.1
v 0.3 1.1 0.1
v 0.5 1.1 0.1
v -0.5 1.1 -0.0999999
v -0.3 1.1 -0.0999999
v 0.3 1.1 -0.0999999
v 0.5 1.1 -0.0999999
v -0.2 1.3 0.3
v 0.2 1.3 0.3
v -0.3 1.3 0.2
v -0.2 1.3 0.2
v 0.2 1.3 0.2
v 0.3 1.3 0.2
v -0.3 1.3 0.1
v -0.2 1.3 0.1
v 0.2 1.3 0.1
v 0.3 1.3 0.1
v -0.4 1.5 1.19209e-007
v -0.3 1.5 1.19209e-007
v 0.3 1.5 1.19209e-007
v 0.4 1.5 1.19209e-007
v -0.4 1.5 -0.2
v -0.3 1.5 -0.2
v 0.3 1.5 -0.2
v 0.4 1.5 -0.2
v -0.3 1.6 0.1
v -0.2 1.6 0.1
v 0.2 1.6 0.1
v 0.3 1.6 0.1
v -0.3 1.6 -0.3
v -0.2 1.6 -0.3
v 0.2 1.6 -0.3
v 0.3 1.6 -0.3
v -0.2 1.6 -0.4
v 0.2 1.6 -0.4
v -0.2 1.7 0.4
v 0.2 1.7 0.4
v -0.1 1.7 0.1
v 0.1 1.7 0.1
v -0.1 1.7 -0.2
v 0.1 1.7 -0.2
v -0.2 1.7 -0.3
v 0.2 1.7 -0.3
v -0.1 1.8 0.1
v 0.1 1.8 0.1
v -0.1 1.8 -0.2
v 0.1 1.8 -0.2

# faces
f 4/1/1 2/1/1 1/1/1
f 5/4/1 4/4/1 3/4/1
f 6/1/1 2/1/1 4/1/1
f 6/4/1 4/4/1 5/4/1
f 7/1/1 2/1/1 6/1/1
f 8/1/1 2/1/1 7/1/1
f 9/4/1 8/4/1 7/4/1
f 10/4/1 8/4/1 9/4/1
f 13/4/1 12/4/1 11/4/1
f 14/4/1 12/4/1 13/4/1
f 18/1/1 16/1/1 15/1/1
f 19/4/1 18/4/1 17/4/1
f 20/1/1 16/1/1 18/1/1
f 20/4/1 18/4/1 19/4/1
f 22/1/1 16/1/1 20/1/1
f 23/1/1 16/1/1 22/1/1
f 25/4/1 22/4/1 21/4/1
f 26/1/1 23/1/1 22/1/1
f 26/4/1 22/4/1 25/4/1
f 28/1/1 23/1/1 26/1/1
f 29/4/1 24/4/1 23/4/1
f 29/1/1 23/1/1 28/1/1
f 30/4/1 28/4/1 27/4/1
f 31/4/1 28/4/1 30/4/1
f 34/4/1 33/4/1 32/4/1
f 35/4/1 33/4/1 34/4/1
f 36/4/1 24/4/1 29/4/1
f 37/4/1 24/4/1 36/4/1
f 42/4/1 40/4/1 39/4/1
f 42/4/1 41/4/1 40/4/1
f 42/4/1 39/4/1 38/4/1
f 43/4/1 41/4/1 42/4/1
f 44/4/1 41/4/1 43/4/1
f 45/4/1 41/4/1 44/4/1
f 46/4/1 44/4/1 43/4/1
f 47/4/1 41/4/1 45/4/1
f 48/4/1 46/4/1 43/4/1
f 48/4/1 47/4/1 46/4/1
f 49/4/1 41/4/1 47/4/1
f 49/4/1 47/4/1 48/4/1
f 55/3/1 51/3/1 50/3/1
f 55/4/1 52/4/1 51/4/1
f 56/4/1 52/4/1 55/4/1
f 57/3/1 55/3/1 50/3/1
f 58/3/1 55/3/1 57/3/1
f 59/3/1 54/3/1 53/3/1
f 60/3/1 54/3/1 59/3/1
f 63/4/1 62/4/1 61/4/1
f 64/4/1 62/4/1 63/4/1
f 68/1/1 65/1/1 64/1/1
f 69/1/1 65/1/1 68/1/1
f 70/2/1 69/2/1 68/2/1
f 71/2/1 69/2/1 70/2/1
f 73/1/1 71/1/1 70/1/1
f 74/1/1 71/1/1 73/1/1
f 75/4/1 67/4/1 66/4/1
f 76/4/1 67/4/1 75/4/1
f 77/4/1 74/4/1 73/4/1
f 77/4/1 73/4/1 72/4/1
f 77/4/1 75/4/1 74/4/1
f 78/4/1 75/4/1 77/4/1
f 81/4/1 80/4/1 79/4/1
f 82/4/1 80/4/1 81/4/1
f 86/1/1 84/1/1 83/1/1
f 87/4/1 86/4/1 85/4/1
f 88/1/1 84/1/1 86/1/1
f 88/4/1 86/4/1 87/4/1
f 89/1/1 84/1/1 88/1/1
f 90/1/1 84/1/1 89/1/1
f 91/1/2 92/1/2 94/1/2
f 93/4/2 94/4/2 95/4/2
f 94/1/2 92/1/2 96/1/2
f 95/4/2 94/4/2 96/4/2
f 96/1/2 92/1/2 97/1/2
f 97/1/2 92/1/2 98/1/2
f 99/4/2 100/4/2 101/4/2
f 101/4/2 100/4/2 102/4/2
f 103/3/2 104/3/2 107/3/2
f 107/3/2 104/3/2 108/3/2
f 105/3/2 106/3/2 109/3/2
f 109/3/2 106/3/2 110/3/2
f 111/4/2 112/4/2 113/4/2
f 113/4/2 112/4/2 114/4/2
f 114/1/2 115/1/2 118/1/2
f 118/1/2 115/1/2 119/1/2
f 118/2/2 119/2/2 120/2/2
f 120/2/2 119/2/2 121/2/2
f 120/1/2 121/1/2 123/1/2
f 123/1/2 121/1/2 124/1/2
f 116/4/2 117/4/2 125/4/2
f 125/4/2 117/4/2 126/4/2
f 123/4/2 124/4/2 127/4/2
f 122/4/2 123/4/2 127/4/2
f 124/4/2 125/4/2 127/4/2
f 127/4/2 125/4/2 128/4/2
f 129/1/2 130/1/2 132/1/2
f 131/4/2 132/4/2 133/4/2
f 132/1/2 130/1/2 134/1/2
f 133/4/2 132/4/2 134/4/2
f 134/1/2 130/1/2 136/1/2
f 136/1/2 130/1/2 137/1/2
f 135/4/2 136/4/2 139/4/2
f 136/1/2 137/1/2 139/1/2
f 137/4/2 138/4/2 140/4/2
f 139/1/2 137/1/2 140/1/2
f 135/4/2 139/4/2 141/4/2
f 141/4/2 139/4/2 142/4/2
f 143/4/2 144/4/2 145/4/2
f 145/4/2 144/4/2 146/4/2
f 140/4/2 138/4/2 147/4/2
f 147/4/2 138/4/2 148/4/2
f 150/4/2 151/4/2 153/4/2
f 151/4/2 152/4/2 153/4/2
f 149/4/2 150/4/2 153/4/2
f 153/4/2 152/4/2 154/4/2
f 154/4/2 152/4/2 155/4/2
f 155/4/2 152/4/2 156/4/2
f 154/4/2 155/4/2 157/4/2
f 156/4/2 152/4/2 158/4/2
f 154/4/2 157/4/2 159/4/2
f 157/4/2 158/4/2 159/4/2
f 158/4/2 152/4/2 160/4/2
f 159/4/2 158/4/2 160/4/2
f 161/4/2 162/4/2 163/4/2
f 163/4/2 162/4/2 164/4/2
f 165/1/2 166/1/2 168/1/2
f 167/4/2 168/4/2 169/4/2
f 168/1/2 166/1/2 170/1/2
f 169/4/2 168/4/2 170/4/2
f 170/1/2 166/1/2 171/1/2
f 171/1/2 166/1/2 172/1/2
f 171/4/2 172/4/2 173/4/2
f 173/4/2 172/4/2 174/4/2
f 177/4/3 176/4/3 175/4/3
f 178/4/3 176/4/3 177/4/3
f 183/3/3 180/3/3 179/3/3
f 184/3/3 180/3/3 183/3/3
f 185/4/3 182/4/3 181/4/3
f 186/4/3 182/4/3 185/4/3
f 194/4/3 188/4/3 187/4/3
f 195/4/3 188/4/3 194/4/3
f 199/4/3 192/4/3 191/4/3
f 200/4/3 194/4/3 193/4/3
f 200/4/3 195/4/3 194/4/3
f 200/4/3 196/4/3 195/4/3
f 201/4/3 196/4/3 200/4/3
f 202/4/3 198/4/3 197/4/3
f 203/4/3 198/4/3 202/4/3
f 207/4/3 190/4/3 189/4/3
f 208/4/3 190/4/3 207/4/3
f 209/2/3 205/2/3 204/2/3
f 209/1/3 204/1/3 203/1/3
f 210/1/3 206/1/3 205/1/3
f 210/2/3 205/2/3 209/2/3
f 213/1/3 209/1/3 203/1/3
f 213/1/3 210/1/3 209/1/3
f 214/1/3 206/1/3 210/1/3
f 214/1/3 210/1/3 213/1/3
f 215/4/3 199/4/3 191/4/3
f 216/4/3 196/4/3 201/4/3
f 218/1/3 213/1/3 203/1/3
f 219/2/3 214/2/3 213/2/3
f 219/1/3 213/1/3 218/1/3
f 220/1/3 206/1/3 214/1/3
f 220/2/3 214/2/3 219/2/3
f 221/1/3 206/1/3 220/1/3
f 222/4/3 212/4/3 211/4/3
f 223/4/3 212/4/3 222/4/3
f 224/4/3 215/4/3 191/4/3
f 224/4/3 216/4/3 215/4/3
f 225/4/3 216/4/3 224/4/3
f 226/4/3 216/4/3 225/4/3
f 227/4/3 196/4/3 216/4/3
f 227/4/3 216/4/3 226/4/3
f 228/4/3 218/4/3 217/4/3
f 229/4/3 218/4/3 228/4/3
f 230/4/3 226/4/3 225/4/3
f 231/4/3 226/4/3 230/4/3
f 242/1/3 233/1/3 232/1/3
f 243/1/3 233/1/3 242/1/3
f 244/1/3 235/1/3 234/1/3
f 245/4/3 236/4/3 235/4/3
f 245/1/3 235/1/3 244/1/3
f 246/4/3 236/4/3 245/4/3
f 249/1/3 242/1/3 241/1/3
f 250/1/3 242/1/3 249/1/3
f 251/4/3 248/4/3 247/4/3
f 252/4/3 248/4/3 251/4/3
f 253/4/3 248/4/3 252/4/3
f 254/4/3 248/4/3 253/4/3
f 255/1/3 238/1/3 237/1/3
f 256/1/3 238/1/3 255/1/3
f 257/1/3 240/1/3 239/1/3
f 258/1/3 240/1/3 257/1/3
f 259/4/3 246/4/3 245/4/3
f 260/4/3 246/4/3 259/4/3
f 267/1/3 260/1/3 259/1/3
f 268/1/3 260/1/3 267/1/3
f 269/4/3 262/4/3 261/4/3
f 270/4/3 262/4/3 269/4/3
f 275/1/3 264/1/3 263/1/3
f 276/1/3 264/1/3 275/1/3
f 277/1/3 266/1/3 265/1/3
f 278/1/3 266/1/3 277/1/3
f 282/4/3 268/4/3 267/4/3
f 283/4/3 268/4/3 282/4/3
f 284/4/3 274/4/3 273/4/3
f 284/4/3 272/4/3 271/4/3
f 284/4/3 273/4/3 272/4/3
f 285/4/3 274/4/3 284/4/3
f 286/1/3 280/1/3 279/1/3
f 287/1/3 280/1/3 286/1/3
f 288/1/3 282/1/3 281/1/3
f 289/4/3 283/4/3 282/4/3
f 289/1/3 282/1/3 288/1/3
f 290/4/3 283/4/3 289/4/3
f 293/4/3 292/4/3 291/4/3
f 294/4/3 292/4/3 293/4/3
f 297/4/3 296/4/3 295/4/3
f 298/4/3 296/4/3 297/4/3
f 299/1/4 300/1/4 304/1/4
f 300/4/4 301/4/4 305/4/4
f 304/1/4 300/1/4 305/1/4
f 305/4/4 301/4/4 306/4/4
f 302/1/4 303/1/4 307/1/4
f 307/1/4 303/1/4 308/1/4
f 305/4/4 306/4/4 309/4/4
f 309/4/4 306/4/4 310/4/4
f 309/1/4 310/1/4 313/1/4
f 313/1/4 310/1/4 314/1/4
f 311/1/4 312/1/4 315/1/4
f 315/1/4 312/1/4 316/1/4
f 313/4/4 314/4/4 318/4/4
f 318/4/4 314/4/4 319/4/4
f 317/1/4 318/1/4 320/1/4
f 318/4/4 319/4/4 321/4/4
f 320/1/4 318/1/4 321/1/4
f 321/4/4 319/4/4 322/4/4
f 323/4/4 324/4/4 327/4/4
f 327/4/4 324/4/4 328/4/4
f 325/4/4 326/4/4 329/4/4
f 329/4/4 326/4/4 330/4/4
f 331/4/4 332/4/4 333/4/4
f 333/4/4 332/4/4 334/4/4
f 325/4/4 329/4/4 335/4/4
f 330/4/4 326/4/4 336/4/4
f 325/4/4 335/4/4 337/4/4
f 335/4/4 336/4/4 337/4/4
f 336/4/4 326/4/4 338/4/4
f 337/4/4 336/4/4 338/4/4
f 339/4/4 340/4/4 341/4/4
f 341/4/4 340/4/4 342/4/4
f 343/4/4 344/4/4 347/4/4
f 347/4/4 344/4/4 348/4/4
f 345/3/4 346/3/4 350/3/4
f 350/3/4 346/3/4 351/3/4
f 343/4/4 347/4/4 352/4/4
f 348/4/4 349/4/4 353/4/4
f 353/4/4 349/4/4 354/4/4
f 343/4/4 352/4/4 355/4/4
f 352/4/4 353/4/4 355/4/4
f 355/4/4 353/4/4 356/4/4
f 357/4/4 358/4/4 359/4/4
f 359/4/4 358/4/4 360/4/4
f 365/1/5 362/1/5 361/1/5
f 366/1/5 362/1/5 365/1/5
f 367/1/5 364/1/5 363/1/5
f 368/1/5 364/1/5 367/1/5
f 373/4/5 370/4/5 369/4/5
f 374/4/5 370/4/5 373/4/5
f 375/4/5 372/4/5 371/4/5
f 376/4/5 372/4/5 375/4/5
f 379/4/5 378/4/5 377/4/5
f 380/4/5 378/4/5 379/4/5
f 381/4/5 378/4/5 380/4/5
f 382/4/5 378/4/5 381/4/5
f 384/1/5 381/1/5 380/1/5
f 385/1/5 381/1/5 384/1/5
f 387/4/5 384/4/5 383/4/5
f 387/4/5 386/4/5 385/4/5
f 387/4/5 385/4/5 384/4/5
f 388/4/5 386/4/5 387/4/5
f 391/3/5 390/3/5 389/3/5
f 392/3/5 390/3/5 391/3/5
f 395/3/5 394/3/5 393/3/5
f 396/3/5 394/3/5 395/3/5
f 400/4/5 398/4/5 397/4/5
f 401/4/5 398/4/5 400/4/5
f 404/1/5 400/1/5 399/1/5
f 405/1/5 400/1/5 404/1/5
f 406/1/5 403/1/5 402/1/5
f 407/1/5 403/1/5 406/1/5
f 412/4/5 409/4/5 408/4/5
f 413/4/5 409/4/5 412/4/5
f 414/4/5 411/4/5 410/4/5
f 415/4/5 411/4/5 414/4/5
f 419/4/5 417/4/5 416/4/5
f 420/4/5 417/4/5 419/4/5
f 422/4/5 419/4/5 418/4/5
f 422/4/5 421/4/5 420/4/5
f 422/4/5 420/4/5 419/4/5
f 423/4/5 421/4/5 422/4/5
f 424/4/5 421/4/5 423/4/5
f 425/4/5 421/4/5 424/4/5
f 430/4/5 427/4/5 426/4/5
f 430/4/5 429/4/5 428/4/5
f 430/4/5 428/4/5 427/4/5
f 431/4/5 429/4/5 430/4/5
f 436/4/5 433/4/5 432/4/5
f 437/4/5 433/4/5 436/4/5
f 438/4/5 435/4/5 434/4/5
f 439/4/5 435/4/5 438/4/5
f 442/4/5 441/4/5 440/4/5
f 443/4/5 441/4/5 442/4/5
f 446/4/5 445/4/5 444/4/5
f 447/4/5 445/4/5 446/4/5
f 448/4/6 449/4/6 452/4/6
f 452/4/6 449/4/6 453/4/6
f 450/4/6 451/4/6 454/4/6
f 454/4/6 451/4/6 455/4/6
f 456/4/6 457/4/6 458/4/6
f 458/4/6 457/4/6 459/4/6
f 460/4/6 461/4/6 464/4/6
f 464/4/6 461/4/6 465/4/6
f 462/4/6 463/4/6 466/4/6
f 466/4/6 463/4/6 467/4/6
f 468/3/6 469/3/6 470/3/6
f 470/3/6 469/3/6 471/3/6
f 472/3/6 473/3/6 474/3/6
f 474/3/6 473/3/6 475/3/6
f 476/4/6 477/4/6 478/4/6
f 478/4/6 477/4/6 479/4/6
f 479/4/6 477/4/6 480/4/6
f 480/4/6 477/4/6 481/4/6
f 482/4/6 483/4/6 486/4/6
f 484/4/6 485/4/6 486/4/6
f 483/4/6 484/4/6 486/4/6
f 486/4/6 485/4/6 487/4/6
f 488/4/6 489/4/6 492/4/6
f 492/4/6 489/4/6 493/4/6
f 490/4/6 491/4/6 494/4/6
f 494/4/6 491/4/6 495/4/6
f 496/4/6 497/4/6 499/4/6
f 499/4/6 497/4/6 500/4/6
f 498/4/6 499/4/6 502/4/6
f 502/4/6 499/4/6 503/4/6
f 500/4/6 501/4/6 504/4/6
f 504/4/6 501/4/6 505/4/6
f 506/4/6 507/4/6 510/4/6
f 510/4/6 507/4/6 511/4/6
f 508/4/6 509/4/6 512/4/6
f 512/4/6 509/4/6 513/4/6
f 514/4/6 515/4/6 518/4/6
f 518/4/6 515/4/6 519/4/6
f 516/4/6 517/4/6 520/4/6
f 520/4/6 517/4/6 521/4/6
f 519/4/6 520/4/6 522/4/6
f 522/4/6 520/4/6 523/4/6
f 524/4/6 525/4/6 526/4/6
f 526/4/6 525/4/6 527/4/6
f 524/4/6 526/4/6 528/4/6
f 527/4/6 525/4/6 529/4/6
f 524/4/6 528/4/6 530/4/6
f 528/4/6 529/4/6 530/4/6
f 529/4/6 525/4/6 531/4/6
f 530/4/6 529/4/6 531/4/6
f 532/4/6 533/4/6 534/4/6
f 534/4/6 533/4/6 535/4/6
