# MagicaVoxel @ Ephtracy

# group
o 

# material
mtllib Worker.mtl
usemtl palette

# normals
vn -1 0 0
vn 1 0 0
vn 0 0 1
vn 0 0 -1
vn 0 -1 0
vn 0 1 0

# texcoords
vt 0.310547 0.5
vt 0.314453 0.5
vt 0.318359 0.5
vt 0.322266 0.5
vt 0.376953 0.5
vt 0.912109 0.5

# verts
v -0.5 0.6 0.1
v -0.5 0.6 -0.0999999
v -0.5 1 0.1
v -0.5 1 -0.0999999
v -0.5 1.1 0.1
v -0.5 1.1 -0.0999999
v -0.5 1.6 0.3
v -0.5 1.6 -0.4
v -0.5 1.7 0.3
v -0.5 1.7 -0.4
v -0.4 1.6 0.4
v -0.4 1.6 0.3
v -0.4 1.6 -0.4
v -0.4 1.6 -0.5
v -0.4 1.7 0.4
v -0.4 1.7 0.3
v -0.4 1.7 0.2
v -0.4 1.7 -0.3
v -0.4 1.7 -0.4
v -0.4 1.7 -0.5
v -0.4 1.8 0.2
v -0.4 1.8 -0.3
v -0.4 1.9 0.2
v -0.4 1.9 -0.3
v -0.3 0 0.1
v -0.3 0 -0.0999999
v -0.3 0.4 0.2
v -0.3 0.4 0.1
v -0.3 0.4 -0.0999999
v -0.3 0.4 -0.2
v -0.3 0.5 0.2
v -0.3 0.5 -0.2
v -0.3 0.6 0.2
v -0.3 0.6 0.1
v -0.3 0.6 -0.0999999
v -0.3 0.6 -0.2
v -0.3 1 0.1
v -0.3 1 -0.0999999
v -0.3 1.1 0.2
v -0.3 1.1 0.1
v -0.3 1.1 -0.0999999
v -0.3 1.1 -0.2
v -0.3 1.1 -0.3
v -0.3 1.1 -0.4
v -0.3 1.2 1.19209e-007
v -0.3 1.2 -0.3
v -0.3 1.3 0.1
v -0.3 1.3 1.19209e-007
v -0.3 1.6 0.1
v -0.3 1.6 -0.4
v -0.3 1.7 0.3
v -0.3 1.7 0.2
v -0.3 1.7 -0.3
v -0.3 1.7 -0.4
v -0.3 1.8 0.3
v -0.3 1.8 0.2
v -0.3 1.8 -0.3
v -0.3 1.8 -0.4
v -0.3 1.9 0.3
v -0.3 1.9 0.2
v -0.3 1.9 0.1
v -0.3 1.9 -0.2
v -0.3 1.9 -0.3
v -0.3 1.9 -0.4
v -0.3 2 0.1
v -0.3 2 -0.2
v -0.2 1 -0.3
v -0.2 1 -0.4
v -0.2 1.1 -0.3
v -0.2 1.1 -0.4
v -0.2 1.2 0.2
v -0.2 1.2 1.19209e-007
v -0.2 1.3 0.1
v -0.2 1.3 1.19209e-007
v -0.2 1.4 0.2
v -0.2 1.4 0.1
v -0.2 1.5 0.2
v -0.2 1.5 0.1
v -0.2 1.6 0.2
v -0.2 1.6 0.1
v -0.2 1.9 0.2
v -0.2 1.9 0.1
v -0.2 1.9 -0.2
v -0.2 1.9 -0.3
v -0.2 2 0.2
v -0.2 2 0.1
v -0.2 2 -0.2
v -0.2 2 -0.3
v -0.1 0.9 -0.3
v -0.1 0.9 -0.4
v -0.1 1 -0.3
v -0.1 1 -0.4
v -0.1 1.1 0.1
v -0.1 1.1 -0.0999999
v -0.1 1.2 0.3
v -0.1 1.2 0.2
v -0.1 1.2 0.1
v -0.1 1.2 -0.0999999
v -0.1 1.3 0.3
v -0.1 1.3 0.2
v 0.1 0 0.1
v 0.1 0 -0.0999999
v 0.1 0.4 0.1
v 0.1 0.4 -0.0999999
v -0.1 0 0.1
v -0.1 0 -0.0999999
v -0.1 0.4 0.1
v -0.1 0.4 -0.0999999
v 0.1 0.9 -0.3
v 0.1 0.9 -0.4
v 0.1 1 -0.3
v 0.1 1 -0.4
v 0.1 1.1 0.1
v 0.1 1.1 -0.0999999
v 0.1 1.2 0.3
v 0.1 1.2 0.2
v 0.1 1.2 0.1
v 0.1 1.2 -0.0999999
v 0.1 1.3 0.3
v 0.1 1.3 0.2
v 0.2 1 -0.3
v 0.2 1 -0.4
v 0.2 1.1 -0.3
v 0.2 1.1 -0.4
v 0.2 1.2 0.2
v 0.2 1.2 1.19209e-007
v 0.2 1.3 0.1
v 0.2 1.3 1.19209e-007
v 0.2 1.4 0.2
v 0.2 1.4 0.1
v 0.2 1.5 0.2
v 0.2 1.5 0.1
v 0.2 1.6 0.2
v 0.2 1.6 0.1
v 0.2 1.9 0.2
v 0.2 1.9 0.1
v 0.2 1.9 -0.2
v 0.2 1.9 -0.3
v 0.2 2 0.2
v 0.2 2 0.1
v 0.2 2 -0.2
v 0.2 2 -0.3
v 0.3 0 0.1
v 0.3 0 -0.0999999
v 0.3 0.4 0.2
v 0.3 0.4 0.1
v 0.3 0.4 -0.0999999
v 0.3 0.4 -0.2
v 0.3 0.5 0.2
v 0.3 0.5 -0.2
v 0.3 0.6 0.2
v 0.3 0.6 0.1
v 0.3 0.6 -0.0999999
v 0.3 0.6 -0.2
v 0.3 1 0.1
v 0.3 1 -0.0999999
v 0.3 1.1 0.2
v 0.3 1.1 0.1
v 0.3 1.1 -0.0999999
v 0.3 1.1 -0.2
v 0.3 1.1 -0.3
v 0.3 1.1 -0.4
v 0.3 1.2 1.19209e-007
v 0.3 1.2 -0.3
v 0.3 1.3 0.1
v 0.3 1.3 1.19209e-007
v 0.3 1.6 0.1
v 0.3 1.6 -0.4
v 0.3 1.7 0.3
v 0.3 1.7 0.2
v 0.3 1.7 -0.3
v 0.3 1.7 -0.4
v 0.3 1.8 0.3
v 0.3 1.8 0.2
v 0.3 1.8 -0.3
v 0.3 1.8 -0.4
v 0.3 1.9 0.3
v 0.3 1.9 0.2
v 0.3 1.9 0.1
v 0.3 1.9 -0.2
v 0.3 1.9 -0.3
v 0.3 1.9 -0.4
v 0.3 2 0.1
v 0.3 2 -0.2
v 0.4 1.6 0.4
v 0.4 1.6 0.3
v 0.4 1.6 -0.4
v 0.4 1.6 -0.5
v 0.4 1.7 0.4
v 0.4 1.7 0.3
v 0.4 1.7 0.2
v 0.4 1.7 -0.3
v 0.4 1.7 -0.4
v 0.4 1.7 -0.5
v 0.4 1.8 0.2
v 0.4 1.8 -0.3
v 0.4 1.9 0.2
v 0.4 1.9 -0.3
v 0.5 0.6 0.1
v 0.5 0.6 -0.0999999
v 0.5 1 0.1
v 0.5 1 -0.0999999
v 0.5 1.1 0.1
v 0.5 1.1 -0.0999999
v 0.5 1.6 0.3
v 0.5 1.6 -0.4
v 0.5 1.7 0.3
v 0.5 1.7 -0.4
v -0.4 1.6 0.4
v -0.4 1.7 0.4
v 0.4 1.6 0.4
v 0.4 1.7 0.4
v -0.5 1.6 0.3
v -0.5 1.7 0.3
v -0.4 1.6 0.3
v -0.4 1.7 0.3
v -0.3 1.7 0.3
v -0.3 1.8 0.3
v -0.3 1.9 0.3
v -0.1 1.2 0.3
v -0.1 1.3 0.3
v 0.1 1.2 0.3
v 0.1 1.3 0.3
v 0.3 1.7 0.3
v 0.3 1.8 0.3
v 0.3 1.9 0.3
v 0.4 1.6 0.3
v 0.4 1.7 0.3
v 0.5 1.6 0.3
v 0.5 1.7 0.3
v -0.4 1.7 0.2
v -0.4 1.8 0.2
v -0.4 1.9 0.2
v -0.3 0.4 0.2
v -0.3 0.5 0.2
v -0.3 0.6 0.2
v -0.3 1.1 0.2
v -0.3 1.7 0.2
v -0.3 1.8 0.2
v -0.3 1.9 0.2
v -0.2 1.2 0.2
v -0.2 1.4 0.2
v -0.2 1.5 0.2
v -0.2 1.6 0.2
v -0.2 1.9 0.2
v -0.2 2 0.2
v -0.1 1.2 0.2
v -0.1 1.3 0.2
v -0.1 1.4 0.2
v -0.1 1.5 0.2
v 0.1 0.8 0.2
v 0.1 1 0.2
v 0.1 1.2 0.2
v 0.1 1.3 0.2
v 0.1 1.4 0.2
v 0.1 1.5 0.2
v 0.2 0.8 0.2
v 0.2 1 0.2
v 0.2 1.2 0.2
v 0.2 1.4 0.2
v 0.2 1.5 0.2
v 0.2 1.6 0.2
v 0.2 1.9 0.2
v 0.2 2 0.2
v 0.3 0.4 0.2
v 0.3 0.5 0.2
v 0.3 0.6 0.2
v 0.3 1.1 0.2
v 0.3 1.7 0.2
v 0.3 1.8 0.2
v 0.3 1.9 0.2
v 0.4 1.7 0.2
v 0.4 1.8 0.2
v 0.4 1.9 0.2
v -0.5 0.6 0.1
v -0.5 1 0.1
v -0.5 1.1 0.1
v -0.3 0 0.1
v -0.3 0.4 0.1
v -0.3 0.6 0.1
v -0.3 1 0.1
v -0.3 1.1 0.1
v -0.3 1.3 0.1
v -0.3 1.6 0.1
v -0.3 1.9 0.1
v -0.3 2 0.1
v -0.2 1.3 0.1
v -0.2 1.4 0.1
v -0.2 1.5 0.1
v -0.2 1.6 0.1
v -0.2 1.9 0.1
v -0.2 2 0.1
v -0.1 0 0.1
v -0.1 0.4 0.1
v -0.1 1.1 0.1
v -0.1 1.2 0.1
v 0.1 0 0.1
v 0.1 0.4 0.1
v 0.1 1.1 0.1
v 0.1 1.2 0.1
v 0.2 1.3 0.1
v 0.2 1.4 0.1
v 0.2 1.5 0.1
v 0.2 1.6 0.1
v 0.2 1.9 0.1
v 0.2 2 0.1
v 0.3 0 0.1
v 0.3 0.4 0.1
v 0.3 0.6 0.1
v 0.3 1 0.1
v 0.3 1.1 0.1
v 0.3 1.3 0.1
v 0.3 1.6 0.1
v 0.3 1.9 0.1
v 0.3 2 0.1
v 0.5 0.6 0.1
v 0.5 1 0.1
v 0.5 1.1 0.1
v -0.3 1.2 1.19209e-007
v -0.3 1.3 1.19209e-007
v -0.2 1.2 1.19209e-007
v -0.2 1.3 1.19209e-007
v 0.2 1.2 1.19209e-007
v 0.2 1.3 1.19209e-007
v 0.3 1.2 1.19209e-007
v 0.3 1.3 1.19209e-007
v -0.3 1.1 -0.3
v -0.3 1.2 -0.3
v -0.2 1 -0.3
v -0.2 1.1 -0.3
v -0.1 0.9 -0.3
v -0.1 1 -0.3
v 0.1 0.9 -0.3
v 0.1 1 -0.3
v 0.2 1 -0.3
v 0.2 1.1 -0.3
v 0.3 1.1 -0.3
v 0.3 1.2 -0.3
v -0.5 0.6 -0.0999999
v -0.5 1 -0.0999999
v -0.5 1.1 -0.0999999
v -0.3 0 -0.0999999
v -0.3 0.4 -0.0999999
v -0.3 0.6 -0.0999999
v -0.3 1 -0.0999999
v -0.3 1.1 -0.0999999
v -0.1 0 -0.0999999
v -0.1 0.4 -0.0999999
v -0.1 1.1 -0.0999999
v -0.1 1.2 -0.0999999
v 0.1 0 -0.0999999
v 0.1 0.4 -0.0999999
v 0.1 1.1 -0.0999999
v 0.1 1.2 -0.0999999
v 0.3 0 -0.0999999
v 0.3 0.4 -0.0999999
v 0.3 0.6 -0.0999999
v 0.3 1 -0.0999999
v 0.3 1.1 -0.0999999
v 0.5 0.6 -0.0999999
v 0.5 1 -0.0999999
v 0.5 1.1 -0.0999999
v -0.3 0.4 -0.2
v -0.3 0.5 -0.2
v -0.3 0.6 -0.2
v -0.3 1.1 -0.2
v -0.3 1.9 -0.2
v -0.3 2 -0.2
v -0.2 1.9 -0.2
v -0.2 2 -0.2
v 0.2 1.9 -0.2
v 0.2 2 -0.2
v 0.3 0.4 -0.2
v 0.3 0.5 -0.2
v 0.3 0.6 -0.2
v 0.3 1.1 -0.2
v 0.3 1.9 -0.2
v 0.3 2 -0.2
v -0.4 1.7 -0.3
v -0.4 1.8 -0.3
v -0.4 1.9 -0.3
v -0.3 1.7 -0.3
v -0.3 1.8 -0.3
v -0.3 1.9 -0.3
v -0.2 1.9 -0.3
v -0.2 2 -0.3
v 0.2 1.9 -0.3
v 0.2 2 -0.3
v 0.3 1.7 -0.3
v 0.3 1.8 -0.3
v 0.3 1.9 -0.3
v 0.4 1.7 -0.3
v 0.4 1.8 -0.3
v 0.4 1.9 -0.3
v -0.5 1.6 -0.4
v -0.5 1.7 -0.4
v -0.4 1.6 -0.4
v -0.4 1.7 -0.4
v -0.3 1.1 -0.4
v -0.3 1.6 -0.4
v -0.3 1.7 -0.4
v -0.3 1.8 -0.4
v -0.3 1.9 -0.4
v -0.2 1 -0.4
v -0.2 1.1 -0.4
v -0.1 0.9 -0.4
v -0.1 1 -0.4
v 0.1 0.9 -0.4
v 0.1 1 -0.4
v 0.2 1 -0.4
v 0.2 1.1 -0.4
v 0.3 1.1 -0.4
v 0.3 1.6 -0.4
v 0.3 1.7 -0.4
v 0.3 1.8 -0.4
v 0.3 1.9 -0.4
v 0.4 1.6 -0.4
v 0.4 1.7 -0.4
v 0.5 1.6 -0.4
v 0.5 1.7 -0.4
v -0.4 1.6 -0.5
v -0.4 1.7 -0.5
v 0.4 1.6 -0.5
v 0.4 1.7 -0.5
v -0.3 0 0.1
v -0.1 0 0.1
v 0.1 0 0.1
v 0.3 0 0.1
v -0.3 0 -0.0999999
v -0.1 0 -0.0999999
v 0.1 0 -0.0999999
v 0.3 0 -0.0999999
v -0.3 0.4 0.2
v 0.3 0.4 0.2
v -0.3 0.4 0.1
v -0.1 0.4 0.1
v 0.1 0.4 0.1
v 0.3 0.4 0.1
v -0.3 0.4 -0.0999999
v -0.1 0.4 -0.0999999
v 0.1 0.4 -0.0999999
v 0.3 0.4 -0.0999999
v -0.3 0.4 -0.2
v 0.3 0.4 -0.2
v -0.5 0.6 0.1
v -0.3 0.6 0.1
v 0.3 0.6 0.1
v 0.5 0.6 0.1
v -0.5 0.6 -0.0999999
v -0.3 0.6 -0.0999999
v 0.3 0.6 -0.0999999
v 0.5 0.6 -0.0999999
v -0.1 0.9 -0.3
v 0.1 0.9 -0.3
v -0.1 0.9 -0.4
v 0.1 0.9 -0.4
v -0.2 1 -0.3
v -0.1 1 -0.3
v 0.1 1 -0.3
v 0.2 1 -0.3
v -0.2 1 -0.4
v -0.1 1 -0.4
v 0.1 1 -0.4
v 0.2 1 -0.4
v -0.3 1.1 -0.3
v -0.2 1.1 -0.3
v 0.2 1.1 -0.3
v 0.3 1.1 -0.3
v -0.3 1.1 -0.4
v -0.2 1.1 -0.4
v 0.2 1.1 -0.4
v 0.3 1.1 -0.4
v -0.1 1.2 0.3
v 0.1 1.2 0.3
v -0.2 1.2 0.2
v -0.1 1.2 0.2
v 0.1 1.2 0.2
v 0.2 1.2 0.2
v -0.1 1.2 0.1
v 0.1 1.2 0.1
v -0.3 1.2 1.19209e-007
v -0.2 1.2 1.19209e-007
v 0.2 1.2 1.19209e-007
v 0.3 1.2 1.19209e-007
v -0.1 1.2 -0.0999999
v 0.1 1.2 -0.0999999
v -0.2 1.2 -0.2
v 0.2 1.2 -0.2
v -0.3 1.2 -0.3
v 0.3 1.2 -0.3
v -0.3 1.3 0.1
v -0.2 1.3 0.1
v 0.2 1.3 0.1
v 0.3 1.3 0.1
v -0.3 1.3 1.19209e-007
v -0.2 1.3 1.19209e-007
v 0.2 1.3 1.19209e-007
v 0.3 1.3 1.19209e-007
v -0.4 1.6 0.4
v 0.4 1.6 0.4
v -0.5 1.6 0.3
v -0.4 1.6 0.3
v 0.4 1.6 0.3
v 0.5 1.6 0.3
v -0.2 1.6 0.2
v 0.2 1.6 0.2
v -0.3 1.6 0.1
v -0.2 1.6 0.1
v 0.2 1.6 0.1
v 0.3 1.6 0.1
v -0.5 1.6 -0.4
v -0.4 1.6 -0.4
v -0.3 1.6 -0.4
v 0.3 1.6 -0.4
v 0.4 1.6 -0.4
v 0.5 1.6 -0.4
v -0.4 1.6 -0.5
v 0.4 1.6 -0.5
v -0.3 1.1 0.2
v 0.3 1.1 0.2
v -0.5 1.1 0.1
v -0.3 1.1 0.1
v -0.1 1.1 0.1
v 0.1 1.1 0.1
v 0.3 1.1 0.1
v 0.5 1.1 0.1
v -0.5 1.1 -0.0999999
v -0.3 1.1 -0.0999999
v -0.1 1.1 -0.0999999
v 0.1 1.1 -0.0999999
v 0.3 1.1 -0.0999999
v 0.5 1.1 -0.0999999
v -0.3 1.1 -0.2
v 0.3 1.1 -0.2
v -0.1 1.3 0.3
v 0.1 1.3 0.3
v -0.1 1.3 0.2
v 0.1 1.3 0.2
v -0.4 1.7 0.4
v 0.4 1.7 0.4
v -0.5 1.7 0.3
v -0.4 1.7 0.3
v -0.3 1.7 0.3
v 0.3 1.7 0.3
v 0.4 1.7 0.3
v 0.5 1.7 0.3
v -0.4 1.7 0.2
v -0.3 1.7 0.2
v 0.3 1.7 0.2
v 0.4 1.7 0.2
v -0.4 1.7 -0.3
v -0.3 1.7 -0.3
v 0.3 1.7 -0.3
v 0.4 1.7 -0.3
v -0.5 1.7 -0.4
v -0.4 1.7 -0.4
v -0.3 1.7 -0.4
v 0.3 1.7 -0.4
v 0.4 1.7 -0.4
v 0.5 1.7 -0.4
v -0.4 1.7 -0.5
v 0.4 1.7 -0.5
v -0.3 1.9 0.3
v 0.3 1.9 0.3
v -0.4 1.9 0.2
v -0.3 1.9 0.2
v -0.2 1.9 0.2
v 0.2 1.9 0.2
v 0.3 1.9 0.2
v 0.4 1.9 0.2
v -0.3 1.9 0.1
v -0.2 1.9 0.1
v 0.2 1.9 0.1
v 0.3 1.9 0.1
v -0.3 1.9 -0.2
v -0.2 1.9 -0.2
v 0.2 1.9 -0.2
v 0.3 1.9 -0.2
v -0.4 1.9 -0.3
v -0.3 1.9 -0.3
v -0.2 1.9 -0.3
v 0.2 1.9 -0.3
v 0.3 1.9 -0.3
v 0.4 1.9 -0.3
v -0.3 1.9 -0.4
v 0.3 1.9 -0.4
v -0.2 2 0.2
v 0.2 2 0.2
v -0.3 2 0.1
v -0.2 2 0.1
v 0.2 2 0.1
v 0.3 2 0.1
v -0.3 2 -0.2
v -0.2 2 -0.2
v 0.2 2 -0.2
v 0.3 2 -0.2
v -0.2 2 -0.3
v 0.2 2 -0.3

# faces
f 3/2/1 2/2/1 1/2/1
f 4/2/1 2/2/1 3/2/1
f 5/3/1 4/3/1 3/3/1
f 6/3/1 4/3/1 5/3/1
f 9/5/1 8/5/1 7/5/1
f 10/5/1 8/5/1 9/5/1
f 15/5/1 12/5/1 11/5/1
f 16/5/1 12/5/1 15/5/1
f 19/5/1 14/5/1 13/5/1
f 20/5/1 14/5/1 19/5/1
f 21/1/1 18/1/1 17/1/1
f 22/1/1 18/1/1 21/1/1
f 23/5/1 22/5/1 21/5/1
f 24/5/1 22/5/1 23/5/1
f 28/2/1 26/2/1 25/2/1
f 29/2/1 26/2/1 28/2/1
f 31/3/1 28/3/1 27/3/1
f 31/3/1 30/3/1 29/3/1
f 31/3/1 29/3/1 28/3/1
f 32/3/1 30/3/1 31/3/1
f 33/5/1 32/5/1 31/5/1
f 34/5/1 32/5/1 33/5/1
f 35/5/1 32/5/1 34/5/1
f 36/5/1 32/5/1 35/5/1
f 37/3/1 34/3/1 33/3/1
f 38/3/1 36/3/1 35/3/1
f 39/3/1 37/3/1 33/3/1
f 40/3/1 37/3/1 39/3/1
f 41/3/1 36/3/1 38/3/1
f 42/3/1 36/3/1 41/3/1
f 46/4/1 44/4/1 43/4/1
f 48/4/1 46/4/1 45/4/1
f 49/4/1 48/4/1 47/4/1
f 50/4/1 44/4/1 46/4/1
f 50/4/1 48/4/1 49/4/1
f 50/4/1 46/4/1 48/4/1
f 55/1/1 52/1/1 51/1/1
f 56/1/1 52/1/1 55/1/1
f 57/1/1 54/1/1 53/1/1
f 58/1/1 54/1/1 57/1/1
f 59/5/1 56/5/1 55/5/1
f 60/5/1 56/5/1 59/5/1
f 63/5/1 58/5/1 57/5/1
f 64/5/1 58/5/1 63/5/1
f 65/5/1 62/5/1 61/5/1
f 66/5/1 62/5/1 65/5/1
f 69/4/1 68/4/1 67/4/1
f 70/4/1 68/4/1 69/4/1
f 73/2/1 72/2/1 71/2/1
f 74/2/1 72/2/1 73/2/1
f 75/2/1 73/2/1 71/2/1
f 76/2/1 73/2/1 75/2/1
f 77/6/1 76/6/1 75/6/1
f 78/6/1 76/6/1 77/6/1
f 79/2/1 78/2/1 77/2/1
f 80/2/1 78/2/1 79/2/1
f 85/5/1 82/5/1 81/5/1
f 86/5/1 82/5/1 85/5/1
f 87/5/1 84/5/1 83/5/1
f 88/5/1 84/5/1 87/5/1
f 91/4/1 90/4/1 89/4/1
f 92/4/1 90/4/1 91/4/1
f 97/2/1 94/2/1 93/2/1
f 98/2/1 94/2/1 97/2/1
f 99/4/1 96/4/1 95/4/1
f 100/4/1 96/4/1 99/4/1
f 103/2/1 102/2/1 101/2/1
f 104/2/1 102/2/1 103/2/1
f 105/2/2 106/2/2 107/2/2
f 107/2/2 106/2/2 108/2/2
f 109/4/2 110/4/2 111/4/2
f 111/4/2 110/4/2 112/4/2
f 113/2/2 114/2/2 117/2/2
f 117/2/2 114/2/2 118/2/2
f 115/4/2 116/4/2 119/4/2
f 119/4/2 116/4/2 120/4/2
f 121/4/2 122/4/2 123/4/2
f 123/4/2 122/4/2 124/4/2
f 125/2/2 126/2/2 127/2/2
f 127/2/2 126/2/2 128/2/2
f 125/2/2 127/2/2 129/2/2
f 129/2/2 127/2/2 130/2/2
f 129/6/2 130/6/2 131/6/2
f 131/6/2 130/6/2 132/6/2
f 131/2/2 132/2/2 133/2/2
f 133/2/2 132/2/2 134/2/2
f 135/5/2 136/5/2 139/5/2
f 139/5/2 136/5/2 140/5/2
f 137/5/2 138/5/2 141/5/2
f 141/5/2 138/5/2 142/5/2
f 143/2/2 144/2/2 146/2/2
f 146/2/2 144/2/2 147/2/2
f 145/3/2 146/3/2 149/3/2
f 147/3/2 148/3/2 149/3/2
f 146/3/2 147/3/2 149/3/2
f 149/3/2 148/3/2 150/3/2
f 149/5/2 150/5/2 151/5/2
f 151/5/2 150/5/2 152/5/2
f 152/5/2 150/5/2 153/5/2
f 153/5/2 150/5/2 154/5/2
f 151/3/2 152/3/2 155/3/2
f 153/3/2 154/3/2 156/3/2
f 151/3/2 155/3/2 157/3/2
f 157/3/2 155/3/2 158/3/2
f 156/3/2 154/3/2 159/3/2
f 159/3/2 154/3/2 160/3/2
f 161/4/2 162/4/2 164/4/2
f 163/4/2 164/4/2 166/4/2
f 165/4/2 166/4/2 167/4/2
f 164/4/2 162/4/2 168/4/2
f 167/4/2 166/4/2 168/4/2
f 166/4/2 164/4/2 168/4/2
f 169/1/2 170/1/2 173/1/2
f 173/1/2 170/1/2 174/1/2
f 171/1/2 172/1/2 175/1/2
f 175/1/2 172/1/2 176/1/2
f 173/5/2 174/5/2 177/5/2
f 177/5/2 174/5/2 178/5/2
f 175/5/2 176/5/2 181/5/2
f 181/5/2 176/5/2 182/5/2
f 179/5/2 180/5/2 183/5/2
f 183/5/2 180/5/2 184/5/2
f 185/5/2 186/5/2 189/5/2
f 189/5/2 186/5/2 190/5/2
f 187/5/2 188/5/2 193/5/2
f 193/5/2 188/5/2 194/5/2
f 191/1/2 192/1/2 195/1/2
f 195/1/2 192/1/2 196/1/2
f 195/5/2 196/5/2 197/5/2
f 197/5/2 196/5/2 198/5/2
f 199/2/2 200/2/2 201/2/2
f 201/2/2 200/2/2 202/2/2
f 201/3/2 202/3/2 203/3/2
f 203/3/2 202/3/2 204/3/2
f 205/5/2 206/5/2 207/5/2
f 207/5/2 206/5/2 208/5/2
f 211/5/3 210/5/3 209/5/3
f 212/5/3 210/5/3 211/5/3
f 215/5/3 214/5/3 213/5/3
f 216/5/3 214/5/3 215/5/3
f 222/4/3 221/4/3 220/4/3
f 223/4/3 221/4/3 222/4/3
f 224/1/3 218/1/3 217/1/3
f 225/5/3 219/5/3 218/5/3
f 225/1/3 218/1/3 224/1/3
f 226/5/3 219/5/3 225/5/3
f 229/5/3 228/5/3 227/5/3
f 230/5/3 228/5/3 229/5/3
f 238/1/3 232/1/3 231/1/3
f 239/5/3 233/5/3 232/5/3
f 239/1/3 232/1/3 238/1/3
f 240/5/3 233/5/3 239/5/3
f 247/2/3 242/2/3 241/2/3
f 248/2/3 242/2/3 247/2/3
f 249/6/3 243/6/3 242/6/3
f 249/2/3 242/2/3 248/2/3
f 250/2/3 244/2/3 243/2/3
f 250/6/3 243/6/3 249/6/3
f 251/3/3 237/3/3 236/3/3
f 252/3/3 237/3/3 251/3/3
f 254/2/3 249/2/3 248/2/3
f 254/2/3 250/2/3 249/2/3
f 255/2/3 250/2/3 254/2/3
f 256/2/3 244/2/3 250/2/3
f 256/2/3 250/2/3 255/2/3
f 257/5/3 252/5/3 251/5/3
f 257/3/3 251/3/3 236/3/3
f 258/3/3 237/3/3 252/3/3
f 258/5/3 252/5/3 257/5/3
f 259/2/3 255/2/3 254/2/3
f 259/2/3 254/2/3 253/2/3
f 260/6/3 256/6/3 255/6/3
f 260/2/3 255/2/3 259/2/3
f 261/2/3 244/2/3 256/2/3
f 261/6/3 256/6/3 260/6/3
f 262/2/3 244/2/3 261/2/3
f 263/5/3 246/5/3 245/5/3
f 264/5/3 246/5/3 263/5/3
f 265/3/3 235/3/3 234/3/3
f 266/5/3 236/5/3 235/5/3
f 266/3/3 235/3/3 265/3/3
f 267/3/3 257/3/3 236/3/3
f 267/5/3 236/5/3 266/5/3
f 267/3/3 258/3/3 257/3/3
f 268/3/3 237/3/3 258/3/3
f 268/3/3 258/3/3 267/3/3
f 272/1/3 270/1/3 269/1/3
f 273/5/3 271/5/3 270/5/3
f 273/1/3 270/1/3 272/1/3
f 274/5/3 271/5/3 273/5/3
f 280/2/3 276/2/3 275/2/3
f 281/3/3 277/3/3 276/3/3
f 281/2/3 276/2/3 280/2/3
f 282/3/3 277/3/3 281/3/3
f 287/4/3 284/4/3 283/4/3
f 288/4/3 284/4/3 287/4/3
f 289/4/3 284/4/3 288/4/3
f 290/4/3 284/4/3 289/4/3
f 291/5/3 286/5/3 285/5/3
f 292/5/3 286/5/3 291/5/3
f 293/2/3 279/2/3 278/2/3
f 294/2/3 279/2/3 293/2/3
f 299/2/3 296/2/3 295/2/3
f 300/2/3 296/2/3 299/2/3
f 307/2/3 298/2/3 297/2/3
f 308/2/3 298/2/3 307/2/3
f 312/4/3 302/4/3 301/4/3
f 312/4/3 303/4/3 302/4/3
f 312/4/3 304/4/3 303/4/3
f 313/4/3 304/4/3 312/4/3
f 314/5/3 306/5/3 305/5/3
f 315/5/3 306/5/3 314/5/3
f 316/2/3 310/2/3 309/2/3
f 317/3/3 311/3/3 310/3/3
f 317/2/3 310/2/3 316/2/3
f 318/3/3 311/3/3 317/3/3
f 321/4/3 320/4/3 319/4/3
f 322/4/3 320/4/3 321/4/3
f 325/4/3 324/4/3 323/4/3
f 326/4/3 324/4/3 325/4/3
f 330/4/3 328/4/3 327/4/3
f 332/4/3 330/4/3 329/4/3
f 333/4/3 332/4/3 331/4/3
f 334/4/3 330/4/3 332/4/3
f 334/4/3 332/4/3 333/4/3
f 335/4/3 330/4/3 334/4/3
f 336/4/3 328/4/3 330/4/3
f 336/4/3 330/4/3 335/4/3
f 337/4/3 328/4/3 336/4/3
f 338/4/3 328/4/3 337/4/3
f 339/2/4 340/2/4 344/2/4
f 340/3/4 341/3/4 345/3/4
f 344/2/4 340/2/4 345/2/4
f 345/3/4 341/3/4 346/3/4
f 342/2/4 343/2/4 347/2/4
f 347/2/4 343/2/4 348/2/4
f 349/2/4 350/2/4 353/2/4
f 353/2/4 350/2/4 354/2/4
f 351/2/4 352/2/4 355/2/4
f 355/2/4 352/2/4 356/2/4
f 357/2/4 358/2/4 360/2/4
f 358/3/4 359/3/4 361/3/4
f 360/2/4 358/2/4 361/2/4
f 361/3/4 359/3/4 362/3/4
f 367/5/4 368/5/4 369/5/4
f 369/5/4 368/5/4 370/5/4
f 363/3/4 364/3/4 373/3/4
f 364/5/4 365/5/4 374/5/4
f 373/3/4 364/3/4 374/3/4
f 365/3/4 366/3/4 375/3/4
f 374/5/4 365/5/4 375/5/4
f 375/3/4 366/3/4 376/3/4
f 371/5/4 372/5/4 377/5/4
f 377/5/4 372/5/4 378/5/4
f 379/1/4 380/1/4 382/1/4
f 380/5/4 381/5/4 383/5/4
f 382/1/4 380/1/4 383/1/4
f 383/5/4 381/5/4 384/5/4
f 385/5/4 386/5/4 387/5/4
f 387/5/4 386/5/4 388/5/4
f 389/1/4 390/1/4 392/1/4
f 390/5/4 391/5/4 393/5/4
f 392/1/4 390/1/4 393/1/4
f 393/5/4 391/5/4 394/5/4
f 395/5/4 396/5/4 397/5/4
f 397/5/4 396/5/4 398/5/4
f 399/4/4 400/4/4 405/4/4
f 404/4/4 405/4/4 407/4/4
f 406/4/4 407/4/4 408/4/4
f 407/4/4 405/4/4 409/4/4
f 408/4/4 407/4/4 409/4/4
f 409/4/4 405/4/4 410/4/4
f 405/4/4 400/4/4 411/4/4
f 410/4/4 405/4/4 411/4/4
f 411/4/4 400/4/4 412/4/4
f 412/4/4 400/4/4 413/4/4
f 401/1/4 402/1/4 414/1/4
f 402/5/4 403/5/4 415/5/4
f 414/1/4 402/1/4 415/1/4
f 415/5/4 403/5/4 416/5/4
f 417/5/4 418/5/4 419/5/4
f 419/5/4 418/5/4 420/5/4
f 421/5/4 422/5/4 423/5/4
f 423/5/4 422/5/4 424/5/4
f 429/2/5 426/2/5 425/2/5
f 430/2/5 426/2/5 429/2/5
f 431/2/5 428/2/5 427/2/5
f 432/2/5 428/2/5 431/2/5
f 435/3/5 434/3/5 433/3/5
f 436/3/5 434/3/5 435/3/5
f 437/3/5 434/3/5 436/3/5
f 438/3/5 434/3/5 437/3/5
f 440/2/5 437/2/5 436/2/5
f 441/2/5 437/2/5 440/2/5
f 443/3/5 440/3/5 439/3/5
f 443/3/5 442/3/5 441/3/5
f 443/3/5 441/3/5 440/3/5
f 444/3/5 442/3/5 443/3/5
f 449/2/5 446/2/5 445/2/5
f 450/2/5 446/2/5 449/2/5
f 451/2/5 448/2/5 447/2/5
f 452/2/5 448/2/5 451/2/5
f 455/4/5 454/4/5 453/4/5
f 456/4/5 454/4/5 455/4/5
f 461/4/5 458/4/5 457/4/5
f 462/4/5 458/4/5 461/4/5
f 463/4/5 460/4/5 459/4/5
f 464/4/5 460/4/5 463/4/5
f 469/4/5 466/4/5 465/4/5
f 470/4/5 466/4/5 469/4/5
f 471/4/5 468/4/5 467/4/5
f 472/4/5 468/4/5 471/4/5
f 476/4/5 474/4/5 473/4/5
f 477/4/5 474/4/5 476/4/5
f 479/2/5 476/2/5 475/2/5
f 479/2/5 478/2/5 477/2/5
f 479/2/5 477/2/5 476/2/5
f 480/2/5 478/2/5 479/2/5
f 482/2/5 479/2/5 475/2/5
f 483/2/5 478/2/5 480/2/5
f 485/2/5 479/2/5 482/2/5
f 486/2/5 483/2/5 480/2/5
f 487/4/5 482/4/5 481/4/5
f 487/2/5 486/2/5 485/2/5
f 487/2/5 485/2/5 482/2/5
f 488/2/5 483/2/5 486/2/5
f 488/2/5 486/2/5 487/2/5
f 488/4/5 484/4/5 483/4/5
f 489/4/5 487/4/5 481/4/5
f 489/4/5 488/4/5 487/4/5
f 490/4/5 484/4/5 488/4/5
f 490/4/5 488/4/5 489/4/5
f 495/4/5 492/4/5 491/4/5
f 496/4/5 492/4/5 495/4/5
f 497/4/5 494/4/5 493/4/5
f 498/4/5 494/4/5 497/4/5
f 502/5/5 500/5/5 499/5/5
f 503/5/5 500/5/5 502/5/5
f 505/5/5 502/5/5 501/5/5
f 505/5/5 504/5/5 503/5/5
f 505/5/5 503/5/5 502/5/5
f 506/5/5 504/5/5 505/5/5
f 507/5/5 505/5/5 501/5/5
f 508/5/5 505/5/5 507/5/5
f 509/5/5 504/5/5 506/5/5
f 510/5/5 504/5/5 509/5/5
f 511/5/5 507/5/5 501/5/5
f 512/5/5 507/5/5 511/5/5
f 513/5/5 507/5/5 512/5/5
f 514/5/5 504/5/5 510/5/5
f 515/5/5 504/5/5 514/5/5
f 516/5/5 504/5/5 515/5/5
f 517/5/5 513/5/5 512/5/5
f 517/5/5 515/5/5 514/5/5
f 517/5/5 514/5/5 513/5/5
f 518/5/5 515/5/5 517/5/5
f 519/3/6 520/3/6 522/3/6
f 522/3/6 520/3/6 523/3/6
f 523/3/6 520/3/6 524/3/6
f 524/3/6 520/3/6 525/3/6
f 521/3/6 522/3/6 527/3/6
f 522/3/6 523/3/6 527/3/6
f 527/3/6 523/3/6 528/3/6
f 528/3/6 523/3/6 529/3/6
f 525/3/6 526/3/6 530/3/6
f 524/3/6 525/3/6 530/3/6
f 530/3/6 526/3/6 531/3/6
f 531/3/6 526/3/6 532/3/6
f 528/3/6 529/3/6 533/3/6
f 530/3/6 531/3/6 533/3/6
f 529/3/6 530/3/6 533/3/6
f 533/3/6 531/3/6 534/3/6
f 535/4/6 536/4/6 537/4/6
f 537/4/6 536/4/6 538/4/6
f 539/5/6 540/5/6 542/5/6
f 542/5/6 540/5/6 543/5/6
f 543/5/6 540/5/6 544/5/6
f 544/5/6 540/5/6 545/5/6
f 541/5/6 542/5/6 547/5/6
f 542/5/6 543/5/6 547/5/6
f 547/5/6 543/5/6 548/5/6
f 545/5/6 546/5/6 549/5/6
f 544/5/6 545/5/6 549/5/6
f 549/5/6 546/5/6 550/5/6
f 541/5/6 547/5/6 551/5/6
f 550/5/6 546/5/6 554/5/6
f 551/5/6 552/5/6 555/5/6
f 541/5/6 551/5/6 555/5/6
f 555/5/6 552/5/6 556/5/6
f 556/5/6 552/5/6 557/5/6
f 553/5/6 554/5/6 558/5/6
f 554/5/6 546/5/6 559/5/6
f 558/5/6 554/5/6 559/5/6
f 559/5/6 546/5/6 560/5/6
f 556/5/6 557/5/6 561/5/6
f 557/5/6 558/5/6 561/5/6
f 558/5/6 559/5/6 561/5/6
f 561/5/6 559/5/6 562/5/6
f 563/5/6 564/5/6 566/5/6
f 566/5/6 564/5/6 567/5/6
f 567/5/6 564/5/6 568/5/6
f 568/5/6 564/5/6 569/5/6
f 565/5/6 566/5/6 571/5/6
f 566/5/6 567/5/6 571/5/6
f 571/5/6 567/5/6 572/5/6
f 569/5/6 570/5/6 573/5/6
f 568/5/6 569/5/6 573/5/6
f 573/5/6 570/5/6 574/5/6
f 565/5/6 571/5/6 575/5/6
f 574/5/6 570/5/6 578/5/6
f 575/5/6 576/5/6 579/5/6
f 565/5/6 575/5/6 579/5/6
f 579/5/6 576/5/6 580/5/6
f 580/5/6 576/5/6 581/5/6
f 577/5/6 578/5/6 582/5/6
f 578/5/6 570/5/6 583/5/6
f 582/5/6 578/5/6 583/5/6
f 583/5/6 570/5/6 584/5/6
f 580/5/6 581/5/6 585/5/6
f 581/5/6 582/5/6 585/5/6
f 582/5/6 583/5/6 585/5/6
f 585/5/6 583/5/6 586/5/6
f 587/5/6 588/5/6 590/5/6
f 590/5/6 588/5/6 591/5/6
f 589/5/6 590/5/6 593/5/6
f 591/5/6 592/5/6 593/5/6
f 590/5/6 591/5/6 593/5/6
f 593/5/6 592/5/6 594/5/6
f 594/5/6 592/5/6 595/5/6
f 595/5/6 592/5/6 596/5/6
f 594/5/6 595/5/6 597/5/6
f 597/5/6 595/5/6 598/5/6
